<svg width="89" height="37" xmlns="http://www.w3.org/2000/svg"><g stroke="null"><path d="M1258.03 1950.933c0-50 12.998-79.998 12.998-79.998-16.733 0-47.463 48.994-57.055 65h-40.975c2.12-6.48 5.572-12.517 10.2-17.586a48.634 48.634 0 0 1 2.86-2.885l-13.593-14.67a68.69 68.69 0 0 0-4.042 4.073c-8 8.764-13.525 19.564-16.135 31.066h-34.76c2.61-11.518 8.14-22.332 16.148-31.104a68.79 68.79 0 0 1 4.046-4.075l-13.59-14.674a88.97 88.97 0 0 0-5.23 5.27c-11.36 12.445-18.87 28.066-21.75 44.583h-34.786c2.885-16.566 10.41-32.234 21.806-44.717a88.435 88.435 0 0 1 5.24-5.28l-13.593-14.67a108.875 108.875 0 0 0-6.425 6.472c-14.74 16.148-24.23 36.643-27.286 58.195h-32.017v-55c-110 0-150 70-150 70s40 70 150 70v-55h31.982c3.467 24.566 15.45 47.71 33.745 64.667l13.596-14.668c-14.243-13.2-23.773-30.995-27.078-50h34.788c3.305 18.955 12.81 36.694 27.007 49.852l13.594-14.67c-10.136-9.394-17.18-21.804-20.22-35.18h34.764c3.04 13.362 10.075 25.757 20.196 35.138l13.596-14.668c-6.04-5.598-10.522-12.713-13.072-20.47h40.984c9.592 16.005 40.32 65 57.055 65 0 0-13-30-13-80zm-327.937.002c-5.523 0-10-4.477-10-10s4.477-10 10-10c5.522 0 10 4.477 10 10s-4.478 10-10 10z" transform="matrix(.21582 0 0 .23265 -185.63 -435.275)"/></g></svg>