<svg width="159" height="296" xmlns="http://www.w3.org/2000/svg">
  <path id="svg_1" d="m101.201,229.816l36.515,0c-5.058,26 -28.037,46.125 -55.341,46.125c-31.107,0 -56.374,-25.521 -56.374,-56.629l0,-103.156c3,-2.903 5,-7.293 5,-12.206l0,-88.122c-0.001,-8.742 -6.759,-15.828 -15.501,-15.828s-15.5,7.086 -15.5,15.828l0,88.122c0,4.913 2,9.303 5,12.206l0,103.156c0,42.221 34.731,76.569 76.952,76.569c41.719,0 76.304,-34.296 76.804,-76.496c0.002,-0.331 0.244,-38.913 0.244,-39.301l0,-31.431l-57.799,81.163z"/>
</svg>