<svg width="269" height="496" xmlns="http://www.w3.org/2000/svg"><title>background</title><path fill="none" d="M-1-1h271v498H-1z"/><g><title>Layer 1</title><path fill="#E46A53" d="M149.08 488.22c-18.637 0-34.923-6.253-47.095-18.083-12.407-12.056-19.584-29.116-20.75-49.335-.834-14.536 4-28.345 9.115-42.964 1.097-3.14 3.006-9.21 5.833-18.554l1.73-5.713a4770.883 4770.883 0 0 0 9.673-32.828l.094-.32.06-.232c1.432-6.388 2.148-12.748 2.13-18.906-.072-23.097-10.562-41.91-19.816-58.507-7.768-13.943-15.103-27.11-16.848-41.962l-.02-.202c-11.62-75.996 7.93-107.368 28.588-128.028 8.793-8.804 26.83-18.283 45.647-18.283 9.18 0 17.437 2.3 24.54 6.84l.136.086.134.093c9.785 6.83 20.51 19.006 25.502 28.954 9.195 18.303 12.126 20.85 52.092 45.17l.21.12c4.344 2.346 7.333 5.928 8.65 10.367 1.99 6.715-.553 12.782-1.208 14.17l.008.005c-3.585 7.153-11.825 11.776-20.992 11.776-4.52 0-8.81-1.134-12.404-3.282-9.677-5.816-30.814-18.16-33.67-19.823l-.513-.298-.462-.37c-2.155-1.725-13.508-10.327-25.37-10.327-3.86 0-7.378.95-10.46 2.82l-.187.11-.19.104c-4.778 2.556-8.954 8.187-10.638 14.346-1.83 6.717-.81 13.29 3.042 19.53l.148.25c.332.584 1.927 2.968 9.548 12.462l.15.176c11.554 13.916 19.143 33.145 21.366 54.145 2.24 21.15-1.313 40.862-10.003 55.5-6.974 11.73-44.13 78.982-48.145 90.5l-.085.243-.052.122c-4.566 13.095-7.846 22.558-7.352 30.973 1.43 24.87 15.23 39.13 37.863 39.13 22.527 0 28.73-7.945 35.033-19.168 5.372-9.553 4.188-22.206-2.876-30.773-5.25-6.374-10.498-8.265-12.023-8.45h-.195c-8.236 0-14.855-6.423-15.067-14.622a14.91 14.91 0 0 1 4.113-10.724c2.802-2.933 6.516-4.584 10.477-4.672l.327-.002c3.27 0 20.342.934 35.543 19.37 15.01 18.207 17.377 44.164 5.89 64.59-9.6 17.053-24.38 34.48-61.222 34.48z"/><path fill="#F4A026" d="M91.125 328.335c-4.542-8.344-11.333-16.3-20.185-23.65-7.832-6.503-15.622-11.16-20.777-13.922l-6.91-3.7 17.77-34.865L19.36 220.96l23.082-22.23-34.35-31.18 31.354-23.865L16.15 111.84l38.676-23.2-12.252-29.43 49.76-16.502L72.168 8.22l66.38 5.563 2.05 3.84c3.433 6.434 8.866 14.312 16.15 23.42l14.45 14.453-20.838-1.108a54.345 54.345 0 0 0-2.94-.088c-17.98 0-36.574 9.198-45.65 18.284-19.454 19.454-40.28 51.59-28.582 128.087l.035.264c1.766 14.818 9.426 28.555 16.834 41.84 9.266 16.632 19.746 35.442 19.812 58.513.01 6.153-.692 12.458-2.09 18.75l-.06.268-7.338 25.04-9.26-17.01z"/><circle r="7.508" cy="93.12" cx="163.634"/><path d="M253.88 128.55c-40.29-24.52-40.96-25.85-49-41.88-2.48-4.94-6.12-10.25-10.34-15.29-2.05-2.45-6.52-7.13-6.53-7.14-4.68-4.81-33.75-35.11-41.98-53.68a7.997 7.997 0 0 0-6.64-4.74C131.7 5.18 72.84.25 72.84.25a8.01 8.01 0 0 0-7.43 3.7 8.008 8.008 0 0 0-.14 8.31l15.18 25.96-40.39 13.4c-2.11.7-3.84 2.25-4.76 4.27a7.94 7.94 0 0 0-.11 6.39l9.59 23.06-32.75 19.64a8.017 8.017 0 0 0-3.73 5.28c-.44 2.2.06 4.49 1.39 6.31l18.66 25.5-25.1 19.11A7.99 7.99 0 0 0 .1 167.2c-.1 2.37.86 4.67 2.62 6.27l28.01 25.43-16.92 16.3a8.034 8.034 0 0 0-2.44 6.26c.15 2.34 1.31 4.5 3.19 5.91l36.27 27.19L36 283.67a7.964 7.964 0 0 0-.39 6.36 7.977 7.977 0 0 0 4.39 4.63c.49.21 48.48 21.03 49.86 57.89-3.38 11.27-5.82 19.09-7.07 22.64-5.38 15.42-10.47 29.98-9.54 46.07 1.28 22.25 9.29 41.14 23.16 54.61 13.69 13.31 31.9 20.35 52.67 20.35 41.21 0 58.09-20.6 68.19-38.55 13.1-23.29 10.41-52.87-6.68-73.61-17.49-21.21-37.83-22.28-41.72-22.28h-.51c-6.14.16-11.86 2.7-16.09 7.16s-6.48 10.3-6.32 16.45c.33 12.28 10.01 21.96 22.21 22.4 1.07.42 3.8 1.78 6.91 5.54 4.93 5.99 5.8 15.14 2.07 21.77-5.25 9.36-9.42 15.09-28.06 15.09-23.19 0-29.05-17.17-29.87-31.59-.41-6.89 2.7-15.79 7-28.12l.04-.12c3.52-10.07 39.72-75.99 47.47-89.05 9.77-16.44 13.73-38.12 11.14-61.04-2.48-21.92-10.93-42.97-23.19-57.75-3.53-4.4-9.11-11.86-9.11-11.86-2.73-4.34-3.48-8.84-2.24-13.39 1.24-4.55 4.34-8.19 6.76-9.44 0 0 2.21-1.21 3.11-1.49 1.19-.37 2.48-.56 3.88-.56 8.21 0 17.72 6.37 20.68 8.82l.51.42.58.34c.24.14 23.88 13.94 34.12 20.09 4.84 2.9 10.56 4.43 16.53 4.43 12.17 0 23.22-6.35 28.15-16.2 4.81-9.6 4.61-26.8-10.76-35.13zM76.05 298.53c-8.19-6.8-16.38-11.75-22.11-14.82l14.21-27.88c1.76-3.46.78-7.7-2.33-10.03l-34.14-25.6 16.31-15.71a7.973 7.973 0 0 0 2.45-5.88 7.986 7.986 0 0 0-2.62-5.8l-27.23-24.72 23.7-18.04a8.012 8.012 0 0 0 1.61-11.09l-18.12-24.77L58.94 95.5a8.005 8.005 0 0 0 3.27-9.93l-8.94-21.48L94.85 50.3a8.007 8.007 0 0 0 4.97-4.76c.85-2.26.64-4.78-.58-6.87L86.85 17.48c14.91 1.25 36.72 3.07 46.69 3.91 4.2 7.87 10.6 16.72 17.24 25l.01.01c-1.11-.06-2.23-.1-3.37-.1-21.09 0-41.38 10.69-51.31 20.63-20.79 20.79-43.07 54.91-30.83 134.95 1.95 16.37 10 30.82 17.79 44.79 9.21 16.53 18.74 33.62 18.8 54.64.01 5.52-.62 11.23-1.9 16.99-.21.71-.87 2.97-1.82 6.21-5.72-10.51-13.91-19.18-22.1-25.98zm174.28-142.01c-2.24 4.47-7.67 7.36-13.84 7.36-3.07 0-5.94-.74-8.3-2.15-9.45-5.68-30.16-17.78-33.75-19.87-3.1-2.48-16.07-12.08-30.37-12.08-5.35 0-10.26 1.34-14.61 3.98-6.73 3.6-12.3 10.95-14.58 19.29-1.68 6.16-2.35 15.63 3.95 25.84.67 1.18 2.58 3.95 10.41 13.7l.09.1c21.83 26.29 26.8 73.23 10.64 100.45-5.91 9.94-44.4 79.27-48.82 91.95l-.05.12c-4.91 14.08-8.46 24.25-7.87 34.32 1.68 29.21 18.82 46.66 45.85 46.66 26.73 0 35.13-11 42.01-23.25 6.95-12.36 5.44-28.72-3.68-39.78-7.68-9.32-15.64-11.36-18.06-11.36h-.33c-3.86 0-6.97-3-7.07-6.83a6.96 6.96 0 0 1 1.92-5.01c1.3-1.36 3.04-2.14 4.85-2.18h.15c2.63 0 16.45.79 29.37 16.46 12.92 15.67 14.97 38.01 5.09 55.58-8.89 15.79-21.61 30.4-54.25 30.4-16.52 0-30.87-5.47-41.52-15.82-10.95-10.64-17.29-25.88-18.34-44.06-.74-12.91 3.62-25.4 8.68-39.86 1.16-3.32 3.15-9.66 5.94-18.88l1.73-5.71c4.75-15.87 9.78-33.2 9.83-33.37l.12-.47c1.58-7.01 2.37-14 2.35-20.79-.08-25.15-11.1-44.93-20.83-62.38-7.37-13.23-14.33-25.73-15.89-39l-.03-.29C69.98 126.98 88.17 97.5 107.43 78.24c7.91-7.92 24.19-15.94 39.99-15.94 7.64 0 14.44 1.88 20.23 5.58 8.67 6.05 18.52 17.19 22.93 25.98 10.43 20.76 15.17 24.13 55.17 48.47l.4.23c8.44 4.48 4.23 13.87 4.18 13.96z"/></g></svg>