<svg width="420.398" height="253.997" xmlns="http://www.w3.org/2000/svg"><g stroke="null"><path d="M324.35 109.288c16.8 0 30.41 13.567 30.41 30.292s-13.61 30.292-30.41 30.292c-16.79 0-30.4-13.567-30.4-30.292s13.61-30.292 30.4-30.292z" fill="#F2F2F2"/><path d="M272.12 33.485c8.02 8 14.2 17.402 18.32 27.602-.93-.19-1.86-.37-2.79-.548a199.567 199.567 0 0 0-36.76-3.408c-14.52 0-28.83 1.584-42.72 4.632a82.47 82.47 0 0 1-9.34-38.11c0-4.433.36-8.906 1.09-13.348 26.41-4.294 53.28 4.333 72.2 23.18z" fill="#F7B239"/><path d="M412.43 139.58c-30.13 41.697-75 69.717-124.78 79.03-14.61-22.83-23.07-49.944-23.07-79.03s8.46-56.19 23.07-79.03v-.01c.93.178 1.86.358 2.79.547a199.59 199.59 0 0 1 51.21 17.85c27.7 14.155 52.08 34.754 70.78 60.643zm-57.67 0c0-16.725-13.61-30.292-30.41-30.292-16.79 0-30.4 13.567-30.4 30.292s13.61 30.292 30.4 30.292c16.8 0 30.41-13.567 30.41-30.292z" fill="#F7B239"/><path d="M287.65 60.54v.01c-14.61 22.84-23.07 49.944-23.07 79.03s8.46 56.2 23.07 79.03a198.632 198.632 0 0 1-36.76 3.418c-6.02 0-12.02-.27-17.96-.807a56.13 56.13 0 0 0 8.6-40.073 56.274 56.274 0 0 0-9.11-.737c-14.86 0-29.28 5.848-39.97 16.496a55.987 55.987 0 0 0-9.79 13.11 201.362 201.362 0 0 1-22.51-9.803A198.807 198.807 0 0 1 89.38 139.6c.63-.01 1.25-.02 1.88-.02-.63 0-1.25-.01-1.88-.02a198.502 198.502 0 0 1 16.2-19.623c27.57-29.375 63.41-49.606 102.59-58.173a199.232 199.232 0 0 1 42.72-4.632c12.44 0 24.75 1.156 36.76 3.407z" fill="#F95428"/><path d="M177.57 159.213a199.696 199.696 0 0 1-16.19-19.613c.63-.01 1.25-.02 1.88-.02-.63 0-1.25-.01-1.88-.02a198.502 198.502 0 0 1 16.2-19.623c27.57-29.375 63.41-49.606 102.59-58.173 2.246-.493 4.507-.933 6.775-1.348a199.56 199.56 0 0 0-36.055-3.284c-14.52 0-28.83 1.584-42.72 4.632-39.18 8.567-75.02 28.798-102.59 58.173a198.502 198.502 0 0 0-16.2 19.623c.63.01 1.25.02 1.88.02-.63 0-1.25.01-1.88.02a198.807 198.807 0 0 0 70.77 60.613 201.36 201.36 0 0 0 22.51 9.802 55.987 55.987 0 0 1 9.79-13.11 56.525 56.525 0 0 1 15.812-11.09 198.326 198.326 0 0 1-30.692-26.602z" fill="#E54728"/><path d="M241.53 181.147a56.13 56.13 0 0 1-8.6 40.074h-.01a55.527 55.527 0 0 1-7.21 8.816c-10.69 10.65-25.11 16.496-39.97 16.496-3.03 0-6.07-.24-9.11-.737a56.11 56.11 0 0 1 6.03-35.78 55.987 55.987 0 0 1 9.79-13.11c10.69-10.647 25.11-16.495 39.97-16.495 3.03 0 6.07.24 9.11.737zM105.57 119.927l.01.01a198.502 198.502 0 0 0-16.2 19.623c-21.21-.478-41.66-9.035-56.92-24.255a82.612 82.612 0 0 1-23.29-71.91c26.41-4.292 53.29 4.334 72.21 23.18 14.45 14.414 22.93 33.44 24.19 53.352zM105.57 159.213a82.757 82.757 0 0 1-24.19 53.372c-15.72 15.648-36.94 24.265-58.81 24.265-4.45 0-8.93-.36-13.4-1.086-4.31-26.307 4.36-53.063 23.29-71.91 15.26-15.22 35.71-23.776 56.92-24.254a199.696 199.696 0 0 0 16.19 19.613z" fill="#F7B239"/><path d="M174.78 104.724a7.504 7.504 0 0 1-6.77-4.247c-1.79-3.722-.21-8.183 3.525-9.964A184.613 184.613 0 0 1 211.51 76.84a184.005 184.005 0 0 1 39.38-4.268c4.142 0 7.5 3.345 7.5 7.47s-3.358 7.472-7.5 7.472c-12.14 0-24.305 1.318-36.16 3.92a169.625 169.625 0 0 0-36.718 12.556 7.493 7.493 0 0 1-3.233.734zM79.617 113.584c-3.136 0-6.06-1.974-7.11-5.098-2.573-7.648-6.968-14.717-12.708-20.442-7.81-7.777-18.16-13.004-29.14-14.714-4.094-.636-6.893-4.458-6.253-8.535.64-4.076 4.47-6.866 8.568-6.227 14.098 2.195 27.392 8.912 37.433 18.914 7.372 7.353 13.015 16.43 16.32 26.254 1.317 3.912-.8 8.146-4.727 9.458a7.51 7.51 0 0 1-2.383.39zM239.86 45.77a7.495 7.495 0 0 1-3.298-.765 53.095 53.095 0 0 0-15.17-4.768c-4.092-.636-6.892-4.457-6.252-8.533.64-4.077 4.48-6.867 8.567-6.23a68.11 68.11 0 0 1 19.464 6.118c3.72 1.818 5.254 6.295 3.43 9.998-1.303 2.645-3.968 4.18-6.74 4.18zM314.948 99.535c-.907 0-1.83-.166-2.727-.514a169.75 169.75 0 0 0-16.425-5.44c-3.993-1.1-6.335-5.214-5.232-9.19 1.104-3.977 5.236-6.31 9.227-5.212 6.03 1.66 12.05 3.654 17.89 5.925 3.857 1.5 5.764 5.833 4.257 9.677-1.158 2.95-3.99 4.755-6.99 4.755z" fill="#FFF"/><circle cx="155.223" cy="108.164" r="7.471" fill="#FFF"/><g fill="#333"><path d="M418.515 135.216c-19.03-26.345-44.43-48.104-73.45-62.927a206.855 206.855 0 0 0-49.275-17.704A89.89 89.89 0 0 0 277.426 28.2c-20.583-20.49-50.01-29.937-78.714-25.27a7.485 7.485 0 0 0-6.194 6.172 90.416 90.416 0 0 0-1.184 14.55c0 11.265 2.163 22.503 6.287 32.98-32.603 8.656-62.344 25.053-86.854 47.63a90.224 90.224 0 0 0-24.084-42.97C66.108 40.798 36.68 31.352 7.966 36.02a7.484 7.484 0 0 0-6.194 6.172 90.202 90.202 0 0 0-1.185 14.55c0 23.77 9.684 47.043 26.563 63.845a90.528 90.528 0 0 0 27.96 18.992 90.514 90.514 0 0 0-27.956 18.99c-20.58 20.488-30.07 49.796-25.383 78.4a7.485 7.485 0 0 0 6.196 6.17 91.446 91.446 0 0 0 14.607 1.178c23.866 0 47.232-9.64 64.11-26.452a90.23 90.23 0 0 0 24.092-43.03c13.78 12.68 29.267 23.51 45.954 32.023a207.872 207.872 0 0 0 15.85 7.25c-3.942 10.353-5.186 21.697-3.354 32.89a7.488 7.488 0 0 0 6.195 6.17 63.89 63.89 0 0 0 10.252.827c16.847 0 33.256-6.642 45.34-18.68a63.56 63.56 0 0 0 5.544-6.317c4.748.33 9.553.5 14.337.5 66.25 0 128.912-31.984 167.62-85.555a7.447 7.447 0 0 0 .002-8.73zM206.63 16.99c22.157-1.946 44.324 5.984 60.187 21.774a75.442 75.442 0 0 1 10.138 12.555c-21.368-2.695-43.313-2.05-64.51 1.952-4.006-9.33-6.112-19.462-6.112-29.62 0-2.216.1-4.443.297-6.663zM15.587 56.742c0-2.217.1-4.445.297-6.664 22.175-1.95 44.333 5.983 60.188 21.776 12.3 12.26 19.95 28.297 21.748 45.44a206.145 206.145 0 0 0-12.088 14.61c-18.13-1.308-35.042-8.992-47.974-21.883-14.09-14.026-22.17-33.446-22.17-53.28zm60.486 150.56c-14.083 14.027-33.583 22.074-53.5 22.074-2.226 0-4.462-.1-6.69-.296-1.953-22.083 6.014-44.152 21.88-59.946 12.926-12.887 29.84-20.57 47.99-21.88a205.212 205.212 0 0 0 12.07 14.56c-1.795 17.168-9.445 33.222-21.75 45.488zm144.332 17.45c-9.788 9.75-23.29 14.875-36.958 14.25a48.883 48.883 0 0 1 14.31-36.814c9.787-9.75 23.29-14.874 36.957-14.253a48.887 48.887 0 0 1-14.31 36.815zm24.534-10.3c4.444-10.785 5.923-22.73 3.995-34.51a7.486 7.486 0 0 0-6.195-6.17c-20.28-3.294-41.06 3.38-55.59 17.852a63.53 63.53 0 0 0-7.624 9.184 193.02 193.02 0 0 1-15.956-7.25c-25.27-12.892-47.598-31.49-64.864-53.983 27.474-35.86 66.716-60.818 111.08-70.52 21.517-4.725 44.005-5.66 65.835-2.84-12.16 22.452-18.544 47.593-18.544 73.363 0 25.766 6.383 50.9 18.54 73.35a190.947 190.947 0 0 1-24.722 1.627c-1.984 0-3.97-.042-5.955-.104zm46.353-4.233c-12.586-21.358-19.216-45.67-19.216-70.64 0-24.976 6.633-49.292 19.224-70.653a191.736 191.736 0 0 1 46.925 16.66c22.43 11.456 42.52 27.39 58.81 46.522h-10.508c-4.143 0-7.5 3.344-7.5 7.47s3.357 7.47 7.5 7.47h10.504c-27.387 32.18-64.74 54.31-105.737 63.17z"/><path d="M324.353 101.822c-20.9 0-37.906 16.938-37.906 37.758s17.005 37.758 37.906 37.758S362.26 160.4 362.26 139.58s-17.006-37.758-37.907-37.758zm0 60.576c-12.63 0-22.906-10.236-22.906-22.817s10.275-22.816 22.906-22.816S347.26 127 347.26 139.58 336.982 162.4 324.352 162.4z"/><circle cx="324.353" cy="139.58" r="7.471"/></g></g></svg>