<svg width="459" height="248" xmlns="http://www.w3.org/2000/svg"><path stroke="null" fill="#F74B4B" d="M116.152 227.184c0-25.504 19.258-46.178 43.013-46.178h49.386c0 25.504-19.257 46.178-43.012 46.178h-49.386zM258.978 248.104c-11.23-22.474-3.363-50.465 17.57-62.52l43.52-25.064c11.23 22.474 3.362 50.465-17.57 62.52l-43.52 25.064zM292.326 115.977c14.87-29.76 4.454-66.825-23.266-82.79L211.433 0c-14.87 29.76-4.453 66.825 23.266 82.79l57.626 33.187z"/><g stroke="null" fill="#F74B4B"><path d="M73.776 131.92H50.168C22.46 131.92 0 107.81 0 78.065h23.608c27.707 0 50.168 24.113 50.168 53.857z"/><path d="M73.776 131.92H50.168C22.46 131.92 0 156.035 0 185.78h23.608c27.707 0 50.168-24.114 50.168-53.86z"/></g><path stroke="null" fill="#51CAF4" d="M458.54 131.93c-36.15 26.376-75.54 45.228-116.32 56.554a349.72 349.72 0 0 1-93.74 12.807c-73.33 0-146.66-23.112-210.05-69.36 90.63-66.133 201.58-84.984 303.8-56.567 40.78 11.327 80.16 30.19 116.31 56.566z"/><path stroke="null" fill="#85E1F9" d="M458.537 131.93c-63.39 46.25-136.722 69.364-210.053 69.364-73.332 0-146.663-23.113-210.053-69.365h420.107z"/><path stroke="null" fill="#45BDDD" d="M458.54 131.93c-36.15 26.376-75.54 45.228-116.32 56.554-7.28-17.242-11.34-36.394-11.34-56.555 0-20.173 4.06-39.315 11.35-56.567 40.78 11.327 80.16 30.19 116.31 56.566z"/><g stroke="null"><circle fill="#FFF" r="16.016" cy="131.921" cx="370.941"/><circle fill="#4D4D4D" r="9.799" cy="131.921" cx="370.941"/></g></svg>