<svg width="404" height="212" xmlns="http://www.w3.org/2000/svg"><path fill="none" d="M-1-1h406v214H-1z"/><g><title>Layer 1</title><path fill="#3F2D20" d="M70.452 87.31c-1.975 0-3.92.8-5.323 2.194a7.598 7.598 0 0 0-2.195 5.323c0 1.974.8 3.908 2.194 5.312a7.594 7.594 0 0 0 5.322 2.204 7.567 7.567 0 0 0 5.31-2.205 7.562 7.562 0 0 0 2.207-5.313c0-1.985-.804-3.93-2.207-5.323a7.578 7.578 0 0 0-5.31-2.195zM277.897 94.074c-21.136-12.192-53.837-26.14-119.87-26.14-.57 0-1.142.002-1.716.004a7.517 7.517 0 0 0 .028 15.035h.027c63.58-.248 94.335 12.772 114.02 24.126a7.515 7.515 0 0 0 10.268-2.756 7.52 7.52 0 0 0-2.756-10.27z"/><g fill="#84BD93"><path d="M290.353 81.474c.34.22.68.44 1.013.662-.33-.222-.674-.442-1.013-.662zM294.018 83.978c.097.07.2.14.295.21-.096-.07-.2-.14-.295-.21zM287.074 79.425zM279.268 75.156c.3.15.61.3.91.452-.3-.153-.61-.3-.91-.452zM306.395 95.588zM304.59 93.39c.183.21.348.418.525.627-.177-.21-.342-.418-.525-.626zM275.132 73.168zM302.62 91.28c-.214-.22-.447-.435-.668-.653.22.217.453.434.67.653zM296.95 86.207c.296.236.58.475.868.712-.29-.24-.572-.477-.868-.713zM299.49 88.34zM283.704 77.48c.28.156.548.314.826.47-.278-.156-.546-.314-.826-.47zM63.066 96.132zM271.096 71.374c.412.176.815.355 1.222.533-.407-.178-.81-.357-1.222-.533zM76.808 90.847c-.037-.058-.06-.124-.098-.182.04.058.06.124.098.182zM307.44 97.028c-6.94-4.787-15.497-9.242-25.437-13.163-27.89-11.002-64.223-17.06-102.307-17.06-7.122 0-14.106.41-20.914 1.135 65.52.107 98.06 13.99 119.115 26.135a7.517 7.517 0 0 1-3.763 14.03c-1.275 0-2.566-.695-3.75-1.377C250.7 95.374 219.945 82.23 156.367 82.23h-.028c-4.14 0-7.5-2.976-7.517-7.118-.01-3.08 1.837-5.542 4.485-6.713-.01.003-.023.098-.033.102-30.004 4-56.166 14.67-74.394 23.367-.5.237-.973 1.36-1.465 1.36h-.006c.363 0 .56 1.24.56 2.217 0 1.974-.8 3.598-2.205 5-1.403 1.403-3.338 2.05-5.31 2.05-1.976 0-3.92-.88-5.324-2.282-.663-.668-1.18-1.5-1.554-2.357.162.37.346.714.565 1.057-12.918 7.2-22.115 13.846-27.356 18.38a266.79 266.79 0 0 0 27.16 15.898c7.338 3.738 16.002 7.7 25.727 11.372 30.477-13.896 26.67-36.31 26.487-37.284-.852-4.063 1.758-8.01 5.822-8.863 4.06-.853 8.054 1.788 8.906 5.852 2.19 10.436-.586 31.264-22.128 46.61 16.808 4.786 35.747 8.13 55.904 8.13 38.085 0 74.418-6.06 102.307-17.06 24.78-9.777 40.99-22.868 44.883-36.138-.865-2.95-2.37-5.887-4.412-8.784zM154.48 68.196c.094-.024.18-.066.275-.086-.096.02-.182.062-.275.086zM63.428 97.43zM21.997 106.523c-.195-.155-.405-.32-.593-.472.188.153.4.318.593.473zM24.975 108.854zM36.446 117.056zM34.073 115.446z"/></g><g fill="#FDD44B"><path d="M220.546 26.415c-16.024 1.073-38.255 3.917-58.74 11.202-1.047.015-2.07.086-3.11.116 1.987-.058 3.957-.153 5.965-.153 19.05 0 37.71 1.48 55.25 4.28l.962-23.36-.326 7.915zM133.104 39.947zM152.618 37.96c-1.4.08-2.775.207-4.162.314 1.386-.107 2.763-.233 4.162-.314zM142.743 38.748c-1.736.18-3.437.414-5.15.63 1.713-.217 3.415-.45 5.15-.63z"/></g><g fill="#84BD93"><path d="M332.094 111.98c-.17-.23-.322-.445-.484-.67.162.225.312.44.484.67zM330.588 109.868zM334.32 114.79c-.17-.205-.357-.417-.523-.62.165.203.352.414.524.62zM338.13 118.994c.324.33.645.657.984.99-.34-.332-.66-.66-.984-.99zM336.657 117.45c-.288-.313-.58-.626-.854-.934.275.31.564.62.854.933zM329.29 107.887c-.11-.177-.23-.36-.333-.53.105.172.22.352.333.53zM379.46 107.328c-.368-1.693.002-3.047.004-3.054l4.78-22.876c-25.366 8.02-37.253 25.063-41.166 31.98 2.74 4.84 9.438 14.71 21.982 22.935 6.254 2.355 13.36 4.198 21.526 5.115l-7.12-34.08c-.004-.005-.004-.012-.006-.02zM353.267 130.756c-.516-.3-1.006-.61-1.505-.92.5.31.99.618 1.505.92zM341.82 122.51c-.293-.26-.558-.518-.843-.777.285.26.55.517.844.777zM363.458 135.708c-.604-.243-1.217-.48-1.803-.73.586.25 1.2.488 1.803.73zM358.09 133.333c-.447-.22-.895-.438-1.33-.662.435.225.883.443 1.33.663zM349.466 128.37zM345.872 125.802c-.395-.3-.803-.598-1.183-.9.38.303.787.6 1.182.9z"/></g><g fill="#FDD44B"><path d="M141.454 172.49c.866.107 1.23.226 2.102.322 2.895 6.563 8.048 14.412 18.048 19.486V174.01c-5-.133-13.24-.675-20.15-1.52zM137.432 172.192z"/></g><path fill="#3F2D20" d="M394.502 105.812l8.825-42.23a7.51 7.51 0 0 0-1.58-6.344 7.51 7.51 0 0 0-5.95-2.708c-41.664.95-64.345 21.268-75.08 35.277-8.737-13.263-25.29-25.067-48.233-34.117-11.39-4.494-24.078-8.2-37.64-11.074l1.37-33.27a7.518 7.518 0 0 0-7.198-7.82C224.94 3.353 130.098 0 92.868 49.395c-14.912 4.794-27.993 10.418-38.583 15.63-17.398 8.56-41.774 24.123-50.16 35.258-2.843 3.772-4.125 6.456.27 10.845 10.393 10.38 53.058 42.966 109.79 56.706.99 4.498 3.028 11.152 7.183 17.948 6.663 10.897 20.142 24.348 46.52 26.548a7.525 7.525 0 0 0 5.716-1.96 7.517 7.517 0 0 0 2.426-5.53v-30.99c35.78-1.1 69.676-7.353 96.456-17.917 22.94-9.05 39.494-20.852 48.23-34.117 10.736 14.01 33.417 34.326 75.082 35.276l.17.002a7.52 7.52 0 0 0 7.36-9.054l-8.826-42.23zm-7.916-35.617l-7.12 34.08c-.003.007-.373 1.36-.005 3.054.003.007.003.014.005.02l7.12 34.08c-37.563-4.218-53.842-27.31-58.54-35.613 4.715-8.337 20.998-31.405 58.54-35.622zM266.97 141.95c-27.89 11.002-64.223 17.06-102.308 17.06-20.156 0-39.096-3.343-55.904-8.13 21.542-15.345 24.317-36.173 22.13-46.61-.853-4.064-4.848-6.705-8.908-5.852-4.064.853-6.674 4.8-5.822 8.863.182.975 3.99 23.388-26.486 37.284a256.775 256.775 0 0 1-25.728-11.374c-20.896-10.64-36.288-21.934-44.085-28.402 6.198-5.83 21.127-16.782 43.985-27.69 23.41-11.17 59.903-24.483 100.817-24.483 38.084 0 74.417 6.06 102.306 17.06 24.783 9.776 40.994 22.867 44.885 36.14-3.892 13.27-20.102 26.36-44.884 36.135zm-105.974 54.186c-18.642-4.126-26.7-16.107-30.16-24.916 9.748 1.606 19.826 2.6 30.16 2.79v22.126zM219.91 41.86c-17.538-2.8-36.2-4.28-55.25-4.28-14.304 0-28.07 1.503-41.017 3.95 31.58-20.163 78.983-22.807 97.23-23.03l-.962 23.36z"/></g></svg>