<?xml version="1.0" encoding="UTF-8"?>
<!DOCTYPE svg PUBLIC "-//W3C//DTD SVG 1.1//EN" "http://www.w3.org/Graphics/SVG/1.1/DTD/svg11.dtd">
<!-- Creator: CorelDRAW X7 -->
<svg xmlns="http://www.w3.org/2000/svg" xml:space="preserve" width="210mm" height="297mm" version="1.1" style="shape-rendering:geometricPrecision; text-rendering:geometricPrecision; image-rendering:optimizeQuality; fill-rule:evenodd; clip-rule:evenodd"
viewBox="0 0 21000 29700"
 xmlns:xlink="http://www.w3.org/1999/xlink">
 <defs>
  <style type="text/css">
   <![CDATA[
    .str0 {stroke:#333300;stroke-width:50}
    .str1 {stroke:black;stroke-width:25}
    .str2 {stroke:#333300;stroke-width:25}
    .str5 {stroke:#401B06;stroke-width:25}
    .str7 {stroke:#401B06;stroke-width:25}
    .str6 {stroke:#C77C69;stroke-width:25}
    .str4 {stroke:#333300;stroke-width:20}
    .str3 {stroke:#333300;stroke-width:10}
    .fil17 {fill:none}
    .fil15 {fill:#030303}
    .fil10 {fill:#0B7B45}
    .fil9 {fill:#0B7B45}
    .fil5 {fill:#25A15B}
    .fil11 {fill:#333300}
    .fil8 {fill:#398F67}
    .fil24 {fill:#398F67}
    .fil27 {fill:#461373}
    .fil28 {fill:#461373}
    .fil22 {fill:#70310C}
    .fil3 {fill:#714499}
    .fil31 {fill:#8DBCB4}
    .fil4 {fill:#9A8776}
    .fil2 {fill:#9FD249}
    .fil30 {fill:#A08B7A}
    .fil29 {fill:#AFA9AB}
    .fil25 {fill:#B9B9B7}
    .fil20 {fill:#C77C69}
    .fil26 {fill:#F2D231}
    .fil18 {fill:#F3678A}
    .fil19 {fill:#F4B0C5}
    .fil6 {fill:#F9B199}
    .fil16 {fill:white}
    .fil14 {fill:white}
    .fil7 {fill:url(#id0)}
    .fil0 {fill:url(#id1)}
    .fil21 {fill:url(#id2)}
    .fil1 {fill:url(#id3)}
    .fil12 {fill:url(#id4)}
    .fil13 {fill:url(#id5)}
    .fil23 {fill:url(#id6)}
   ]]>
  </style>
  <linearGradient id="id0" gradientUnits="userSpaceOnUse" x1="8798.77" y1="8378.97" x2="14023.1" y2="8378.97">
   <stop offset="0" style="stop-opacity:1; stop-color:#0A7945"/>
   <stop offset="1" style="stop-opacity:1; stop-color:#0A4F2F"/>
  </linearGradient>
  <linearGradient id="id1" gradientUnits="userSpaceOnUse" x1="10685.5" y1="8065.48" x2="12153.9" y2="6517.74">
   <stop offset="0" style="stop-opacity:1; stop-color:#0C8548"/>
   <stop offset="1" style="stop-opacity:1; stop-color:#097042"/>
  </linearGradient>
  <linearGradient id="id2" gradientUnits="userSpaceOnUse" x1="10376" y1="9761.14" x2="11569.8" y2="10581.9">
   <stop offset="0" style="stop-opacity:1; stop-color:#8F4D1E"/>
   <stop offset="1" style="stop-opacity:1; stop-color:#5C2C0D"/>
  </linearGradient>
  <linearGradient id="id3" gradientUnits="userSpaceOnUse" x1="11294.1" y1="8417.34" x2="11690.8" y2="7227.1">
   <stop offset="0" style="stop-opacity:1; stop-color:#B9B9B7"/>
   <stop offset="0.639216" style="stop-opacity:1; stop-color:#DCDCDB"/>
   <stop offset="0.988235" style="stop-opacity:1; stop-color:white"/>
   <stop offset="1" style="stop-opacity:1; stop-color:white"/>
  </linearGradient>
  <linearGradient id="id4" gradientUnits="userSpaceOnUse" x1="10353.4" y1="8130.75" x2="10551" y2="8558.95">
   <stop offset="0" style="stop-opacity:1; stop-color:#7F4C17"/>
   <stop offset="1" style="stop-opacity:1; stop-color:#7D2C11"/>
  </linearGradient>
  <linearGradient id="id5" gradientUnits="userSpaceOnUse" xlink:href="#id4" x1="11500.3" y1="7988.98" x2="11724.8" y2="8475.42">
  </linearGradient>
  <linearGradient id="id6" gradientUnits="userSpaceOnUse" x1="12249.7" y1="9359.08" x2="13384.8" y2="9359.08">
   <stop offset="0" style="stop-opacity:1; stop-color:#7E4015"/>
   <stop offset="1" style="stop-opacity:1; stop-color:#401B06"/>
  </linearGradient>
 </defs>
 <g id="Слой_x0020_1">
  <metadata id="CorelCorpID_0Corel-Layer"/>
  <g id="_464202832">
   <path class="fil0 str0" d="M12262 6827c218,62 461,366 728,913 -1219,-293 -2266,-239 -3140,163 142,-765 449,-1159 922,-1182 533,-78 1030,-43 1490,106z"/>
   <path class="fil1 str0" d="M12990 7740c52,85 109,176 172,273 -1086,-343 -2198,-317 -3339,79 18,-126 27,-189 27,-189 923,-405 1969,-459 3140,-163z"/>
   <path class="fil2 str1" d="M10582 11228c-376,-55 -564,-83 -564,-83 -280,157 -519,382 -716,675 -95,-161 -186,-249 -273,-265 -365,74 -636,395 -814,963 465,562 868,901 1209,1018 320,171 543,112 670,-176 132,-1562 295,-2272 488,-2132z"/>
   <path class="fil3 str1" d="M11310 17123c132,-269 178,-560 137,-873 -226,257 -567,227 -1023,-93 -60,351 -139,593 -238,728 214,274 589,353 1124,238z"/>
   <path class="fil3 str1" d="M11447 16250c31,333 -6,606 -110,816 446,370 935,389 1468,57 -87,-273 -129,-515 -126,-727 -721,55 -1131,6 -1232,-146z"/>
   <path class="fil4 str1" d="M11105 16537c203,-4 308,-78 316,-223 150,181 221,197 211,48 20,209 151,317 395,324 198,-3 328,-100 388,-293 -40,99 -58,153 -53,161 267,-33 412,-198 437,-494 22,-802 33,-1204 33,-1204 -1735,-33 -2602,-50 -2602,-50 -67,1044 21,1510 265,1400 17,-41 26,-62 26,-62 -48,141 40,264 265,368 139,17 234,-47 286,-192 -98,137 -87,209 33,217z"/>
   <path class="fil5 str1" d="M10756 11257c-299,-74 -428,-11 -388,190 -345,933 -450,1974 -313,3122 -8,137 65,219 220,247 264,123 474,157 631,102 93,-1111 138,-2021 132,-2730 -188,-621 -282,-931 -282,-931z"/>
   <path class="fil5 str1" d="M11068 11291c-508,-344 -799,-510 -875,-498 -183,85 -295,176 -336,275 155,52 326,178 511,379 95,-46 166,-68 212,-66 88,-18 105,4 48,66 -65,52 -115,103 -150,154 263,119 449,314 560,587 66,-581 75,-880 30,-897z"/>
   <path class="fil6 str1" d="M12295 8136c-973,-379 -1679,-279 -2119,299 -130,96 -148,286 -57,572 -8,188 -96,408 -262,659 -68,346 -53,608 44,785 395,524 803,807 1226,851 412,62 866,-181 1362,-727 114,-109 205,-269 272,-480 95,-12 148,-60 160,-144 -27,-99 0,-214 82,-346 162,-275 151,-470 -35,-585 -156,-51 -247,-7 -273,132 8,77 13,116 14,117 -332,-364 -470,-742 -414,-1133z"/>
   <path class="fil7 str2" d="M9775 8132c-416,254 -734,503 -955,747 -37,69 -26,93 33,71 172,-94 286,-157 342,-188 106,-46 175,-122 207,-229 40,-69 131,-111 272,-126 892,-238 1959,-291 3203,-159 160,57 183,124 69,201 -65,121 1,179 196,174 373,23 659,108 858,254 27,0 30,-16 10,-50 -576,-554 -842,-810 -800,-768 -1111,-368 -2256,-343 -3435,73z"/>
   <path class="fil8 str2" d="M9127 8800c-174,54 -284,100 -333,165 -129,220 46,411 525,576 133,60 279,92 436,94 124,-11 64,-72 2,-132 -233,-21 -499,-124 -800,-309 -122,-92 -152,-166 -29,-222 131,-89 288,-136 410,-139 123,-34 181,-117 175,-249 -17,-64 65,-104 244,-119 122,-30 460,-59 454,-37 241,-128 1256,-180 2583,-90 107,36 105,81 -6,137 -68,92 -10,170 175,234 642,32 967,134 975,307 21,115 -235,284 -767,507 -27,75 -38,136 -36,181 760,-318 1055,-595 884,-832 -203,-142 -528,-226 -974,-253 -128,-25 -157,-84 -88,-178 96,-98 62,-163 -101,-195 -1141,-140 -2241,-79 -3302,184 -85,17 -141,68 -170,152 -31,84 -117,156 -257,218z"/>
   <path class="fil9 str2" d="M9678 9206c7,111 34,210 79,297 -467,-53 -911,-289 -906,-458 2,-66 264,-179 389,-200 159,-71 196,-106 243,-273 41,-55 141,-101 240,-104 23,-2 34,-3 34,-3 -40,93 -46,208 -18,345 10,46 48,102 115,167 -96,41 -155,117 -176,229z"/>
   <path class="fil10 str2" d="M13929 9070c-220,206 -473,357 -758,453 96,-169 168,-423 214,-761 401,32 582,135 544,308z"/>
   <path class="fil11 str3" d="M10555 7637c-35,8 -52,12 -52,12 4,-53 12,-105 22,-154 20,94 30,142 30,142z"/>
   <path class="fil11 str4" d="M11034 7557c-32,10 -55,14 -68,14 -5,-37 -2,-120 9,-248 17,107 37,185 59,234z"/>
   <path class="fil11 str4" d="M12132 7583c-29,-3 -44,-5 -44,-5 14,-61 22,-133 22,-216 25,80 32,154 22,221z"/>
   <path class="fil11 str4" d="M12341 7602c-20,2 -29,3 -29,3 30,-53 47,-106 52,-159 7,68 0,120 -23,156z"/>
   <path class="fil11 str3" d="M10590 7914c-26,-1 -39,-1 -39,-1 -8,69 -12,103 -12,103 26,-58 43,-92 51,-102z"/>
   <path class="fil11 str4" d="M10896 7862c20,-8 36,-10 50,-6 -7,14 -23,76 -48,185 -1,-24 -2,-84 -2,-179z"/>
   <path class="fil11 str3" d="M12254 7837c-35,-2 -52,-3 -52,-3 37,50 66,91 85,123 -7,-64 -18,-104 -33,-120z"/>
   <path class="fil11 str2" d="M12571 7877c-46,-18 -69,-26 -69,-26 54,69 84,116 91,140 5,-57 -3,-95 -22,-114z"/>
   <path class="fil11 str4" d="M12973 8278c-17,-3 -25,-5 -25,-5 -26,-39 -62,-85 -109,-137 79,54 124,101 134,142z"/>
   <path class="fil11 str4" d="M9564 8427c-51,17 -76,26 -76,26 104,-80 181,-141 233,-183 -93,110 -145,163 -157,157z"/>
   <path class="fil12 str5" d="M10315 8198c-84,80 -136,187 -158,320 13,32 35,40 68,25 138,-196 297,-205 476,-27 30,15 46,9 46,-19 -13,-79 -52,-160 -117,-242 -105,-132 -210,-151 -315,-57z"/>
   <path class="fil13 str5" d="M11670 8022c-207,-19 -353,94 -438,339 0,30 17,41 51,32 232,-168 447,-153 645,45 49,18 70,-1 64,-57 -49,-191 -156,-311 -322,-359z"/>
   <path class="fil6 str1" d="M10108 9148c-81,233 -165,406 -251,518 -20,-27 -40,-63 -60,-108 -50,-109 -84,-219 -101,-328 2,-98 57,-176 166,-236 185,-16 267,35 246,154z"/>
   <path class="fil14 str1" d="M11921 8710c113,201 74,461 -117,783 -212,-66 -392,-61 -540,17 -60,-393 -2,-667 172,-820 203,-132 365,-125 485,20z"/>
   <path class="fil15 str1" d="M11782 9462c-138,0 -236,-4 -293,-14 -45,-283 20,-461 194,-533 172,-8 258,46 258,163 -7,188 -60,316 -159,384z"/>
   <path class="fil16 str1" d="M11608 9459c71,0 129,0 174,3 40,-17 74,-58 104,-124 21,-122 -22,-187 -128,-196 -130,12 -185,106 -166,280 11,25 16,37 16,37z"/>
   <path class="fil15 str1" d="M11656 8436c203,51 301,161 293,332 -73,-160 -207,-238 -403,-237 -23,-8 -33,-28 -29,-61 7,-38 53,-50 139,-34z"/>
   <path class="fil17 str1" d="M11804 9493c44,12 75,40 95,84"/>
   <path class="fil14 str1" d="M10330 9445c100,-39 263,-66 488,-82 26,-104 26,-226 -1,-368 9,-191 -65,-302 -223,-335 -92,-7 -175,40 -246,139 -116,215 -121,430 -18,646z"/>
   <path class="fil15 str1" d="M10513 9388c261,44 369,-9 325,-159 0,0 -2,-57 -8,-172 -34,-50 -76,-80 -126,-90 -186,3 -250,144 -191,421z"/>
   <path class="fil14 str1" d="M10696 9136c-141,56 -157,142 -49,258 142,16 208,-27 201,-127 -19,-101 -70,-145 -152,-131z"/>
   <path class="fil18 str1" d="M11518 10468c-237,106 -459,80 -666,-78 -6,112 -103,177 -291,195 131,224 295,346 489,366 225,-28 381,-189 468,-483z"/>
   <path class="fil15 str1" d="M10678 8572c65,39 102,118 112,237 -100,-179 -217,-233 -349,-161 -36,2 -48,-13 -35,-45 71,-83 162,-94 272,-31z"/>
   <path class="fil19 str1" d="M10735 10789c73,-92 170,-107 289,-45 27,19 49,15 66,-13 96,-72 208,-85 336,-42 -151,183 -276,270 -376,262 -113,-5 -218,-59 -315,-162z"/>
   <path class="fil17 str6" d="M10931 11038c179,133 331,109 457,-73"/>
   <path class="fil17 str6" d="M12783 9473c26,-71 54,-71 82,0 10,45 1,82 -29,110 -20,21 -23,44 -11,71"/>
   <ellipse class="fil20 str6" cx="12366" cy="9655" rx="17" ry="30"/>
   <ellipse class="fil20 str6" cx="12433" cy="9765" rx="20" ry="25"/>
   <circle class="fil20 str6" cx="12252" cy="9768" r="15"/>
   <ellipse class="fil20 str6" cx="10123" cy="9480" rx="17" ry="28"/>
   <circle class="fil20 str6" cx="10130" cy="9655" r="17"/>
   <ellipse class="fil20 str6" cx="10045" cy="9606" rx="9" ry="14"/>
   <path class="fil17 str1" d="M10935 9256c-33,101 -117,155 -251,161 -246,-42 -380,1 -404,130 -58,159 -27,275 93,349 53,44 105,75 156,92 119,-21 243,6 371,79 19,-111 44,-169 73,-173 37,-81 140,-100 310,-58 30,-104 -6,-177 -108,-218 -122,-33 -203,12 -242,134"/>
   <path class="fil21 str7" d="M10391 10079c-123,51 -231,-11 -322,-187 -101,290 -28,502 220,635 296,85 483,39 563,-137 298,186 573,165 826,-62 155,-91 236,-276 243,-553 -163,232 -370,254 -622,68 -139,-67 -294,-9 -463,174 -149,-69 -298,-48 -445,62z"/>
   <path class="fil17 str6" d="M9916 9149c-58,60 -65,130 -22,209"/>
   <path class="fil22 str5" d="M9879 8975c94,29 188,82 238,63 -74,-260 -79,-492 27,-599 -107,-18 -236,-9 -387,26 -41,272 0,443 122,510z"/>
   <path class="fil5 str1" d="M11717 11284c-378,603 -605,1053 -681,1349 -79,1475 -122,2236 -130,2285 501,200 1055,250 1662,150 621,-1535 642,-2851 62,-3947 -608,109 -913,163 -913,163z"/>
   <path class="fil5 str1" d="M12673 10373c184,28 337,25 461,-11 162,116 258,190 288,223 20,72 -43,112 -190,119 -361,192 -644,420 -849,686 -127,-81 -253,-104 -378,-70 -53,24 -58,53 -14,87 118,34 190,97 216,190 -621,275 -1000,599 -1138,970 18,-349 174,-672 468,-970 757,-816 1136,-1224 1136,-1224z"/>
   <path class="fil2 str1" d="M10855 11240c-86,-38 -119,-32 -99,17 126,319 448,407 966,265 328,-177 487,-396 477,-658 -411,406 -859,532 -1344,376z"/>
   <path class="fil23 str7" d="M12943 8712c163,31 310,48 442,50 -28,267 -90,490 -185,669 -69,129 -93,229 -71,298 -17,74 -23,196 -19,366 55,19 117,-14 187,-99 39,170 -16,292 -163,366 -118,35 -272,39 -461,11 43,-82 73,-174 88,-278 132,12 190,-66 174,-234 13,-105 44,-194 95,-267 74,-144 101,-270 82,-377 -46,-208 -176,-257 -390,-147 -39,78 -39,153 0,227 -185,-88 -343,-411 -472,-970 191,3 370,14 535,33 81,14 89,43 26,85 -40,7 -64,35 -71,86 -11,82 57,143 203,181z"/>
   <path class="fil24 str1" d="M12375 12267c-603,84 -904,126 -904,126 -14,363 -18,551 -11,562 58,254 197,392 414,415 302,-12 481,-181 538,-507 7,-204 -6,-402 -37,-596z"/>
   <path class="fil9 str1" d="M11964 12715c-221,-23 -376,-113 -465,-271 -42,-123 5,-192 144,-205 235,-33 479,-24 732,28 33,251 -103,400 -411,448z"/>
   <ellipse class="fil11 str1" cx="11962" cy="12728" rx="57" ry="68"/>
   <path class="fil24 str1" d="M10152 12146c242,53 421,65 536,35 97,453 69,762 -84,928 -159,102 -300,106 -423,14 -133,-209 -142,-534 -29,-977z"/>
   <path class="fil9 str1" d="M10688 12181c25,300 -103,435 -384,406 -166,-122 -217,-269 -152,-441 196,-33 374,-22 536,35z"/>
   <ellipse class="fil11 str1" cx="10339" cy="12578" rx="60" ry="58"/>
   <path class="fil2 str1" d="M11037 12547c97,-427 275,-757 536,-990 -188,55 -348,56 -480,6 -61,568 -80,896 -56,984z"/>
   <path class="fil2 str1" d="M13957 11873c-483,-779 -725,-1169 -725,-1169 -385,196 -578,352 -577,466 -122,392 -94,638 85,738 155,684 122,1178 -97,1482 -152,323 -128,538 71,644 276,190 502,287 679,291 133,-20 321,-276 564,-768 306,-558 306,-1120 0,-1684z"/>
   <path class="fil2 str1" d="M12582 13910c-12,15 -18,22 -18,22 -244,124 -326,264 -247,419 256,279 505,421 749,428 135,-6 207,-62 216,-168 -2,-73 1,-173 10,-297 -337,-72 -574,-206 -710,-404z"/>
   <ellipse class="fil25 str1" cx="13272" cy="13963" rx="135" ry="128"/>
   <path class="fil17 str1" d="M13237 14087c-39,62 -79,120 -120,173"/>
   <ellipse class="fil25 str1" cx="8581" cy="12475" rx="97" ry="111"/>
   <path class="fil17 str1" d="M8312 12293c103,107 162,154 179,142"/>
   <path class="fil2 str1" d="M8834 11623c-249,140 -423,363 -522,670 -113,-168 -247,-260 -399,-276 -137,-99 -135,-219 5,-361 114,-44 234,-116 361,-216 109,-109 199,-190 269,-243 207,-14 302,128 286,426z"/>
   <path class="fil6 str1" d="M7750 10765c-11,-199 55,-274 198,-225 170,149 336,203 498,163 74,19 84,94 31,225 29,137 95,272 199,407 -59,49 -91,76 -97,82 -100,-126 -221,-249 -362,-370 -91,8 -167,11 -229,9 -120,-104 -199,-201 -238,-291z"/>
   <path class="fil17 str1" d="M11315 15791c-39,209 -4,383 106,523"/>
   <path class="fil3 str1" d="M11277 17183c160,87 224,160 193,218 8,1019 12,1528 12,1528 -202,84 -371,83 -507,-5 -56,98 -149,139 -278,124 48,-343 10,-561 -115,-653 131,34 203,9 217,-75 -13,67 -59,97 -137,89 -31,-718 -46,-1078 -46,-1078 357,-40 577,-90 661,-148z"/>
   <path class="fil26 str1" d="M11275 17130c-462,112 -820,37 -1073,-225 -80,19 -90,80 -29,183 224,273 591,325 1100,156 5,-50 6,-88 2,-114z"/>
   <path class="fil26 str1" d="M12805 17123c-504,329 -989,314 -1456,-46 -86,69 -96,145 -30,227 380,282 817,323 1312,123 105,-47 174,-109 205,-187 33,-61 22,-100 -31,-117z"/>
   <path class="fil3 str1" d="M11470 17401c409,182 776,199 1099,50 -24,368 -31,659 -20,874 -242,171 -356,443 -342,816 -160,-25 -263,-87 -311,-186 -108,73 -247,64 -414,-26 -8,-1018 -12,-1528 -12,-1528z"/>
   <path class="fil26 str1" d="M12223 19176c-48,-435 61,-719 326,-851 135,-40 252,-31 353,26 -387,160 -571,438 -551,834 -56,9 -98,6 -128,-9z"/>
   <path class="fil17 str1" d="M12548 18309c-90,-5 -176,26 -257,93"/>
   <path class="fil26 str1" d="M10697 19048c46,-350 8,-568 -115,-653 -64,-78 -144,-113 -238,-103 121,98 193,241 216,430 -10,211 -15,317 -15,317 61,8 112,11 152,9z"/>
   <path class="fil4 str1" d="M10545 19039c31,-395 -36,-644 -201,-747 -306,-28 -481,129 -527,471 12,167 81,251 207,252 235,12 409,21 521,24z"/>
   <path class="fil4 str1" d="M12943 19204c-271,22 -469,16 -592,-19 -12,-407 171,-685 551,-834 203,162 289,328 258,496 -17,196 -89,315 -217,357z"/>
   <path class="fil27 str1" d="M10309 19029c-263,34 -424,-15 -483,-149 -57,116 -33,208 73,276 658,132 1030,104 1115,-84 218,66 377,55 476,-33 -5,-73 -8,-110 -8,-110 -231,81 -400,80 -507,-5 -22,117 -244,152 -666,105z"/>
   <path class="fil28 str1" d="M11896 18955c-128,72 -266,63 -414,-26 6,73 8,110 8,110 88,73 215,93 380,62 312,256 632,331 959,225 245,-77 355,-236 331,-479 -16,399 -370,488 -1063,268 -73,-16 -140,-69 -201,-160z"/>
   <g>
    <path class="fil29 str1" d="M14137 16617c-45,240 -152,336 -322,288 0,0 -1170,-1300 -3510,-3900 -311,-363 -852,-837 -1625,-1423 -1914,-1666 -3287,-2757 -4119,-3275 -1243,-930 -2546,-1658 -3909,-2184 -29,-42 -21,-67 23,-76 917,239 2061,794 3432,1665 829,465 1952,1314 3370,2546 1171,966 2010,1672 2517,2117 2699,2720 4048,4080 4048,4080 70,67 102,121 95,162z"/>
    <path class="fil30 str1" d="M14131 16572c-876,-906 -1430,-1473 -1662,-1702 -38,115 -124,200 -257,254 1069,1187 1603,1781 1603,1781 197,39 302,-72 316,-333z"/>
    <path class="fil17 str1" d="M12383 15314c177,-2 280,-75 309,-220"/>
    <path class="fil17 str1" d="M12593 15548c172,11 283,-62 332,-219"/>
    <path class="fil17 str1" d="M12831 15812c213,9 320,-76 321,-255"/>
    <path class="fil17 str1" d="M13059 16065c167,-37 277,-127 330,-269"/>
    <path class="fil17 str1" d="M13285 16316c156,-33 266,-126 330,-277"/>
    <path class="fil17 str1" d="M13491 16544c180,-6 307,-93 381,-260"/>
    <path class="fil26 str1" d="M10489 12874c-58,-58 -86,-87 -86,-87 -15,53 -67,104 -155,153 54,61 81,92 81,92 116,-19 169,-71 160,-158z"/>
    <path class="fil26 str1" d="M3901 7925c-4,97 20,138 72,122 69,-8 150,-99 242,-273 0,0 -36,-20 -108,-62 -68,139 -137,210 -206,213z"/>
    <path class="fil31 str1" d="M3682 7690c-54,4 -80,6 -80,6 -965,-249 -1825,-724 -2580,-1425 -186,-75 -279,-113 -279,-113 1307,1183 2337,1727 3091,1633 -101,-68 -152,-101 -152,-101z"/>
    <path class="fil31 str1" d="M6328 9604c-971,-91 -1697,-623 -2178,-1596 132,95 198,142 198,142 609,846 1204,1279 1786,1300 129,103 194,154 194,154z"/>
    <path class="fil31 str1" d="M7029 10176c44,37 66,55 66,55 638,1271 1689,2174 3153,2709 38,43 57,65 57,65 -1515,-405 -2607,-1348 -3276,-2829z"/>
    <path class="fil29 str1" d="M10004 14192c-209,-238 -330,-394 -364,-466 -156,-316 -80,-547 228,-692 329,-36 601,224 818,778 -173,306 -401,433 -682,380z"/>
    <path class="fil31 str1" d="M10266 13156c-87,-64 -162,-101 -226,-113 -26,164 -175,276 -449,339 -49,67 -34,151 43,251 352,-71 563,-230 632,-477z"/>
    <path class="fil26 str1" d="M10527 13475c-78,-84 -116,-126 -116,-126 -98,272 -320,449 -668,531 87,107 131,161 131,161 434,-188 652,-377 653,-566z"/>
   </g>
   <path class="fil6 str1" d="M7796 10712c-38,175 -156,276 -353,304 -1,150 69,217 211,198 213,-88 329,-180 349,-275 -17,-65 -86,-140 -207,-227z"/>
   <path class="fil6 str1" d="M7982 10960c-18,98 -127,185 -327,261 -27,160 45,232 217,216 203,-112 323,-220 359,-322 -24,-134 -107,-185 -249,-155z"/>
   <path class="fil6 str1" d="M8394 11378c-186,155 -307,228 -363,220 -105,32 -170,-8 -196,-119 177,-91 295,-195 354,-310 139,-3 208,67 205,209z"/>
   <path class="fil6 str1" d="M7793 10792c-86,121 -199,189 -337,205 -279,5 -295,-163 -48,-502 143,25 174,102 92,231 32,-54 67,-90 106,-108 176,-29 238,29 187,174z"/>
   <path class="fil6 str1" d="M12997 15022c20,-122 60,-204 118,-248 -355,-14 -639,-192 -854,-534 -163,-116 -294,-121 -392,-13 -52,186 35,284 260,293 -33,164 -123,231 -271,201 -41,-30 -65,-60 -73,-91 -128,90 -127,202 2,335 150,91 319,34 509,-172 -134,132 -258,214 -372,247 3,171 97,238 280,202 87,-25 174,-78 261,-159 -136,112 -215,167 -235,166 10,206 152,217 428,33 -142,86 -205,127 -190,123 40,138 175,93 406,-134 79,-56 121,-139 123,-249z"/>
  </g>
 </g>
</svg>
