<?xml version="1.0" encoding="iso-8859-1"?>
<!-- Generator: Adobe Illustrator 19.0.0, SVG Export Plug-In . SVG Version: 6.00 Build 0)  -->
<svg version="1.1" id="Layer_1" xmlns="http://www.w3.org/2000/svg" xmlns:xlink="http://www.w3.org/1999/xlink" x="0px" y="0px"
	 viewBox="0 0 512.001 512.001" style="enable-background:new 0 0 512.001 512.001;" xml:space="preserve">
<circle style="fill:#FB7686;" cx="255.996" cy="255.997" r="248.003"/>
<circle style="fill:#FFFFFF;" cx="255.996" cy="255.997" r="186.474"/>
<path style="opacity:0.15;fill:#145587;enable-background:new    ;" d="M308.756,276.997l36.539-36.538
	c14.567-14.57,14.567-38.188,0-52.756c-14.569-14.567-38.188-14.567-52.755,0l-36.539,36.539l-36.539-36.539
	c-14.567-14.567-38.189-14.567-52.756,0c-14.566,14.569-14.566,38.187,0,52.756l36.539,36.538l-36.539,36.539
	c-14.566,14.569-14.566,38.187,0,52.755c7.284,7.284,16.832,10.926,26.379,10.926c9.546,0,19.094-3.642,26.378-10.926l36.539-36.539
	l36.539,36.539c7.284,7.284,16.831,10.926,26.378,10.926c9.546,0,19.094-3.642,26.378-10.926c14.567-14.569,14.567-38.187,0-52.755
	L308.756,276.997z"/>
<path style="fill:#1F84CE;" d="M308.756,256l36.539-36.539c14.567-14.569,14.567-38.187,0-52.755
	c-14.569-14.567-38.188-14.567-52.755,0l-36.539,36.539l-36.539-36.539c-14.567-14.567-38.189-14.567-52.756,0
	c-14.566,14.569-14.566,38.187,0,52.755L203.244,256l-36.539,36.539c-14.566,14.569-14.566,38.187,0,52.755
	c7.284,7.284,16.832,10.926,26.379,10.926c9.546,0,19.094-3.642,26.378-10.926l36.539-36.539l36.539,36.539
	c7.284,7.284,16.831,10.926,26.378,10.926c9.546,0,19.094-3.642,26.378-10.926c14.567-14.569,14.567-38.187,0-52.755L308.756,256z"
	/>
<path style="opacity:0.15;fill:#145587;enable-background:new    ;" d="M256.001,69.53C153.016,69.53,69.53,153.015,69.53,256
	c0,4.57,0.172,9.1,0.496,13.588c6.961-96.64,87.56-172.88,185.975-172.88c98.413,0,179.013,76.24,185.974,172.88
	c0.323-4.488,0.496-9.018,0.496-13.588C442.47,153.015,358.985,69.53,256.001,69.53z"/>
<path d="M437.019,74.981C388.668,26.629,324.382,0.001,256.001,0.001S123.333,26.629,74.982,74.981C26.628,123.333,0,187.62,0,256
	s26.628,132.669,74.982,181.02c48.351,48.351,112.64,74.981,181.02,74.981s132.667-26.628,181.019-74.981
	S512.001,324.38,512.001,256S485.371,123.333,437.019,74.981z M425.715,425.716c-45.332,45.332-105.604,70.297-169.714,70.297
	s-124.383-24.965-169.715-70.297C40.953,380.384,15.987,320.11,15.987,256S40.953,131.617,86.286,86.285
	c45.332-45.332,105.606-70.297,169.715-70.297s124.382,24.965,169.714,70.297S496.012,191.891,496.012,256
	S471.047,380.384,425.715,425.716z M256.001,61.536C148.773,61.536,61.537,148.772,61.537,256s87.236,194.464,194.464,194.464
	c107.227,0,194.463-87.236,194.463-194.464S363.228,61.536,256.001,61.536z M256.001,434.477
	c-98.412,0-178.477-80.065-178.477-178.477S157.588,77.523,256.001,77.523S434.476,157.588,434.476,256
	S354.413,434.477,256.001,434.477z"/>
<g>
</g>
<g>
</g>
<g>
</g>
<g>
</g>
<g>
</g>
<g>
</g>
<g>
</g>
<g>
</g>
<g>
</g>
<g>
</g>
<g>
</g>
<g>
</g>
<g>
</g>
<g>
</g>
<g>
</g>
</svg>
