<?xml version="1.0" encoding="iso-8859-1"?>
<!-- Generator: Adobe Illustrator 19.0.0, SVG Export Plug-In . SVG Version: 6.00 Build 0)  -->
<svg version="1.1" id="Layer_1" xmlns="http://www.w3.org/2000/svg" xmlns:xlink="http://www.w3.org/1999/xlink" x="0px" y="0px"
	 viewBox="0 0 512 512" style="enable-background:new 0 0 512 512;" xml:space="preserve">
<circle style="fill:#FB7686;" cx="255.996" cy="255.996" r="248.003"/>
<circle style="fill:#FFFFFF;" cx="255.996" cy="255.996" r="186.474"/>
<g>
	<path style="opacity:0.15;fill:#145587;enable-background:new    ;" d="M181.358,170.625h40.561c6.451,0,11.68,5.229,11.68,11.68
		v188.826c0,6.45-5.229,11.679-11.68,11.679h-40.561c-6.45,0-11.68-5.229-11.68-11.679V182.305
		C169.678,175.854,174.908,170.625,181.358,170.625z"/>
	<path style="opacity:0.15;fill:#145587;enable-background:new    ;" d="M330.642,170.625h-40.561c-6.451,0-11.68,5.229-11.68,11.68
		v188.826c0,6.45,5.229,11.679,11.68,11.679h40.561c6.451,0,11.68-5.229,11.68-11.679V182.305
		C342.322,175.854,337.094,170.625,330.642,170.625z"/>
	<path style="opacity:0.15;fill:#145587;enable-background:new    ;" d="M256.001,69.531c-102.985,0-186.47,83.485-186.47,186.469
		c0,4.57,0.173,9.1,0.496,13.588c6.961-96.639,87.56-172.881,185.975-172.881c98.413,0,179.013,76.243,185.975,172.881
		c0.323-4.488,0.496-9.018,0.496-13.588C442.471,153.016,358.986,69.531,256.001,69.531z"/>
</g>
<g>
	<path style="fill:#1F84CE;" d="M181.358,149.908h40.561c6.451,0,11.68,5.229,11.68,11.679v188.827
		c0,6.45-5.229,11.679-11.68,11.679h-40.561c-6.45,0-11.68-5.229-11.68-11.679V161.587
		C169.678,155.137,174.908,149.908,181.358,149.908z"/>
	<path style="fill:#1F84CE;" d="M330.642,149.908h-40.561c-6.451,0-11.68,5.229-11.68,11.679v188.827
		c0,6.45,5.229,11.679,11.68,11.679h40.561c6.451,0,11.68-5.229,11.68-11.679V161.587
		C342.322,155.137,337.094,149.908,330.642,149.908z"/>
</g>
<path d="M256.001,61.537c-107.228,0-194.464,87.236-194.464,194.463s87.236,194.463,194.464,194.463s194.463-87.236,194.463-194.463
	S363.228,61.537,256.001,61.537z M256.001,434.476c-98.412,0-178.477-80.063-178.477-178.476S157.588,77.525,256.001,77.525
	c98.411,0,178.476,80.063,178.476,178.476S354.413,434.476,256.001,434.476z M437.02,74.981C388.668,26.629,324.381,0,256.001,0
	S123.333,26.629,74.981,74.981S0,187.619,0,256.001s26.628,132.667,74.981,181.019S187.62,512,256.001,512
	s132.667-26.628,181.019-74.981S512,324.38,512,255.999S485.372,123.332,437.02,74.981z M425.715,425.715
	c-45.332,45.332-105.604,70.297-169.715,70.297s-124.383-24.965-169.715-70.297C40.953,380.383,15.987,320.11,15.987,256.001
	S40.953,131.618,86.286,86.285c45.332-45.332,105.604-70.297,169.715-70.297s124.383,24.965,169.715,70.297
	s70.297,105.606,70.297,169.715S471.047,380.383,425.715,425.715z"/>
<g>
</g>
<g>
</g>
<g>
</g>
<g>
</g>
<g>
</g>
<g>
</g>
<g>
</g>
<g>
</g>
<g>
</g>
<g>
</g>
<g>
</g>
<g>
</g>
<g>
</g>
<g>
</g>
<g>
</g>
</svg>
