<?xml version="1.0" encoding="iso-8859-1"?>
<!-- Generator: Adobe Illustrator 19.0.0, SVG Export Plug-In . SVG Version: 6.00 Build 0)  -->
<svg version="1.1" id="Layer_1" xmlns="http://www.w3.org/2000/svg" xmlns:xlink="http://www.w3.org/1999/xlink" x="0px" y="0px"
	 viewBox="0 0 512 512" style="enable-background:new 0 0 512 512;" xml:space="preserve">
	 
<circle style="fill:#FB7686;" cx="255.996" cy="255.996" r="248.003"/>
<circle style="fill:#FFFFFF; " cx="255.996" cy="255.996" r="186.474"/>
<path style="opacity:0.15;fill:#145587;enable-background:new    ;" d="M365.384,264.613L203.4,171.091
	c-8.958-5.171-20.154,1.294-20.154,11.636v187.045c0,10.343,11.196,16.808,20.154,11.636l161.985-93.522
	C374.342,282.715,374.342,269.786,365.384,264.613z"/>
<path style="fill:#1F84CE;" d="M365.384,244.363L203.4,150.841c-8.958-5.171-20.154,1.294-20.154,11.636v187.045
	c0,10.343,11.196,16.808,20.154,11.636l161.985-93.522C374.342,262.465,374.342,249.535,365.384,244.363z"/>
<path style="opacity:0.15;fill:#145587;enable-background:new    ;" d="M255.999,69.53c-102.985,0-186.469,83.485-186.469,186.469
	c0,4.57,0.172,9.1,0.496,13.588c6.961-96.639,87.56-172.881,185.974-172.881c98.415,0,179.013,76.243,185.974,172.881
	c0.324-4.488,0.496-9.018,0.496-13.588C442.47,153.015,358.984,69.53,255.999,69.53z"/>
<path d="M437.019,74.981C388.667,26.628,324.381,0,255.999,0C187.62,0,123.333,26.628,74.981,74.981S0,187.619,0,255.999
	s26.628,132.669,74.981,181.02S187.62,512,255.999,512c68.38,0,132.667-26.628,181.02-74.981
	C485.371,388.668,512,324.38,512,255.999S485.371,123.332,437.019,74.981z M425.714,425.715
	c-45.332,45.332-105.604,70.297-169.715,70.297c-64.109,0-124.382-24.965-169.715-70.297
	C40.953,380.383,15.987,320.11,15.987,255.999S40.953,131.617,86.286,86.285c45.332-45.332,105.604-70.297,169.714-70.297
	c64.11,0,124.383,24.965,169.715,70.297c45.333,45.332,70.299,105.606,70.299,169.715S471.047,380.383,425.714,425.715z
	 M255.999,61.537c-107.227,0-194.463,87.236-194.463,194.463s87.236,194.463,194.463,194.463s194.464-87.235,194.464-194.463
	S363.227,61.537,255.999,61.537z M255.999,434.476c-98.411,0-178.476-80.063-178.476-178.476S157.588,77.524,255.999,77.524
	s178.476,80.063,178.476,178.476S354.412,434.476,255.999,434.476z"/>
<g>
</g>
<g>
</g>
<g>
</g>
<g>
</g>
<g>
</g>
<g>
</g>
<g>
</g>
<g>
</g>
<g>
</g>
<g>
</g>
<g>
</g>
<g>
</g>
<g>
</g>
<g>
</g>
<g>
</g>
</svg>
