<svg xmlns="http://www.w3.org/2000/svg" viewBox="0 0 511.999 511.999"><path d="M235.887 110.246l-118.965 64.09a18.914 18.914 0 0 1-8.975 2.264H27.065c-10.455 0-18.93 8.474-18.93 18.928v120.945c0 10.454 8.475 18.928 18.93 18.928h80.882c3.133 0 6.217.78 8.975 2.266l118.965 64.09c12.61 6.792 27.906-2.342 27.906-16.665V126.91c0-14.323-15.295-23.457-27.906-16.664z" fill="#f9c526"/><g fill="#145587"><path d="M107.947 176.6H27.065c-10.455 0-18.93 8.474-18.93 18.928v120.945c0 10.454 8.475 18.928 18.93 18.928h80.882c1.627 0 3.24.216 4.805.626v-160.05c-1.563.41-3.178.624-4.805.624zM422.53 450.68c-3.695 0-7.41-1.25-10.46-3.814-6.88-5.78-7.768-16.045-1.987-22.923C449.576 376.955 471.326 317.31 471.326 256c0-61.313-21.752-120.96-61.245-167.95-5.78-6.878-4.89-17.14 1.988-22.922 6.88-5.78 17.142-4.89 22.92 1.987C479.404 119.96 503.866 187.04 503.866 256c0 68.957-24.46 136.036-68.87 188.88a16.235 16.235 0 0 1-12.464 5.8z"/></g><path d="M364.034 401.597c-3.694 0-7.408-1.25-10.46-3.816-6.878-5.78-7.767-16.043-1.986-22.92 27.95-33.255 43.345-75.468 43.345-118.86 0-43.39-15.394-85.604-43.345-118.86-5.78-6.88-4.892-17.14 1.99-22.922 6.873-5.78 17.14-4.893 22.92 1.988 32.87 39.11 50.973 88.757 50.973 139.794 0 51.04-18.102 100.686-50.974 139.796a16.234 16.234 0 0 1-12.462 5.8z" fill="#1f84ce"/><path d="M305.58 352.55c-3.69 0-7.405-1.25-10.456-3.812-6.88-5.78-7.77-16.042-1.99-22.922 16.382-19.504 25.405-44.298 25.405-69.816 0-25.517-9.023-50.312-25.407-69.816-5.78-6.88-4.887-17.142 1.994-22.92 6.88-5.78 17.145-4.888 22.92 1.993 21.302 25.356 33.03 57.584 33.03 90.744 0 33.162-11.73 65.39-33.03 90.746a16.242 16.242 0 0 1-12.466 5.804z" fill="#acdfea"/><path d="M419.76 423.944C459.25 376.956 481 317.312 481 256c0-61.312-21.75-120.958-61.243-167.948-5.783-6.88-4.894-17.14 1.985-22.923a16.235 16.235 0 0 1 5.612-3.074c-5.11-1.578-10.886-.62-15.284 3.073-6.88 5.78-7.768 16.044-1.987 22.922 39.493 46.99 61.245 106.635 61.245 167.948 0 61.31-21.75 120.956-61.243 167.944-5.78 6.88-4.892 17.142 1.987 22.923a16.207 16.207 0 0 0 10.46 3.815c1.64 0 3.272-.26 4.844-.747a16.185 16.185 0 0 1-5.628-3.066c-6.88-5.785-7.77-16.048-1.99-22.926z" opacity=".2"/><g fill="#145587"><path d="M361.263 374.86c27.95-33.254 43.342-75.467 43.342-118.86 0-43.39-15.392-85.603-43.342-118.86-5.78-6.878-4.892-17.14 1.987-22.92 1.7-1.432 3.612-2.45 5.61-3.075-5.11-1.58-10.886-.62-15.282 3.074-6.88 5.78-7.77 16.043-1.99 22.92C379.54 170.4 394.935 212.61 394.935 256c0 43.393-15.394 85.606-43.345 118.86-5.782 6.88-4.893 17.14 1.986 22.922a16.202 16.202 0 0 0 10.46 3.816c1.64 0 3.27-.26 4.844-.747a16.18 16.18 0 0 1-5.63-3.066c-6.88-5.784-7.768-16.046-1.987-22.924zM302.806 325.816c16.383-19.504 25.406-44.298 25.406-69.816 0-25.517-9.022-50.312-25.404-69.816-5.78-6.88-4.887-17.142 1.994-22.92a16.228 16.228 0 0 1 5.608-3.072c-5.107-1.58-10.884-.623-15.282 3.07-6.88 5.78-7.772 16.043-1.994 22.922 16.383 19.504 25.406 44.3 25.406 69.816 0 25.518-9.022 50.313-25.406 69.816-5.78 6.88-4.887 17.143 1.99 22.922a16.207 16.207 0 0 0 10.458 3.812c1.64 0 3.273-.26 4.845-.747a16.2 16.2 0 0 1-5.627-3.064c-6.88-5.78-7.774-16.043-1.994-22.924z" opacity=".15"/></g><g fill="#FFF"><path d="M72.745 236.744H48.14a8.134 8.134 0 0 1-8.134-8.135 8.134 8.134 0 0 1 8.135-8.136h24.606a8.136 8.136 0 0 1 0 16.27zM72.745 291.526H48.14a8.134 8.134 0 0 1-8.134-8.135 8.134 8.134 0 0 1 8.135-8.134h24.606a8.136 8.136 0 0 1 0 16.27z"/></g><path d="M441.217 61.883a24.354 24.354 0 0 0-18.69-8.7c-5.727 0-11.3 2.03-15.693 5.72-10.3 8.66-11.637 24.083-2.98 34.384 38.265 45.53 59.338 103.314 59.338 162.715s-21.073 117.184-59.335 162.71c-8.657 10.3-7.32 25.726 2.98 34.385a24.435 24.435 0 0 0 15.694 5.72c7.23 0 14.04-3.17 18.69-8.702C486.863 395.81 512 326.872 512 256.002c0-70.872-25.138-139.81-70.783-194.12zm-12.45 377.762a8.124 8.124 0 0 1-6.236 2.9c-1.348 0-3.35-.33-5.226-1.906-3.434-2.887-3.88-8.03-.993-11.463 40.724-48.45 63.152-109.953 63.152-173.177 0-63.222-22.428-124.726-63.152-173.18-2.885-3.435-2.44-8.577.99-11.46a8.043 8.043 0 0 1 5.23-1.91 8.12 8.12 0 0 1 6.233 2.9C471.947 123.733 495.73 188.954 495.73 256c0 67.047-23.78 132.267-66.964 183.645zm-104.49-279.62a24.35 24.35 0 0 0-18.694-8.708 24.43 24.43 0 0 0-15.688 5.717 24.237 24.237 0 0 0-8.616 16.572c-.566 6.494 1.432 12.82 5.625 17.81 15.155 18.04 23.5 40.977 23.5 64.585 0 23.61-8.345 46.545-23.5 64.586-8.654 10.303-7.314 25.727 2.988 34.382a24.43 24.43 0 0 0 15.69 5.718 24.366 24.366 0 0 0 18.695-8.707c22.528-26.82 34.936-60.907 34.936-95.978 0-35.074-12.41-69.16-34.937-95.976zm-12.46 181.49a8.127 8.127 0 0 1-6.237 2.9 8.035 8.035 0 0 1-5.224-1.905c-3.434-2.885-3.88-8.026-.996-11.46 17.613-20.967 27.313-47.62 27.313-75.05 0-27.428-9.7-54.08-27.312-75.047a8.073 8.073 0 0 1-1.874-5.936 8.084 8.084 0 0 1 2.87-5.524 8.036 8.036 0 0 1 5.226-1.907 8.123 8.123 0 0 1 6.237 2.904c20.07 23.892 31.122 54.26 31.122 85.51.002 31.25-11.053 61.618-31.124 85.514zM244.848 99.82c-4.486 0-8.797 1.098-12.817 3.264l-118.97 64.09a10.81 10.81 0 0 1-5.114 1.29h-80.88C12.14 168.466 0 180.606 0 195.528v120.945c0 14.922 12.14 27.062 27.065 27.062h80.882c1.78 0 3.55.446 5.118 1.29l118.965 64.09c4.02 2.165 8.33 3.264 12.815 3.264 6.928 0 13.79-2.778 18.827-7.618 5.323-5.117 8.255-12.032 8.255-19.47V126.91c0-14.938-12.148-27.09-27.08-27.09zm-140.23 227.443H27.065c-5.952 0-10.795-4.842-10.795-10.793V195.528c0-5.95 4.843-10.793 10.795-10.793h77.552v142.53zM255.66 385.09c0 3.808-1.774 6.312-3.26 7.74-2.036 1.958-4.79 3.08-7.553 3.08-1.763 0-3.478-.444-5.1-1.318l-118.86-64.033V181.44l118.86-64.032c1.622-.875 3.337-1.318 5.1-1.318 5.2 0 10.813 4.137 10.813 10.82v258.18zm127.066-274.116a24.354 24.354 0 0 0-18.69-8.705 24.42 24.42 0 0 0-15.69 5.72 24.237 24.237 0 0 0-8.615 16.574 24.24 24.24 0 0 0 5.63 17.81C372.083 174.167 386.8 214.52 386.8 256c0 41.48-14.716 81.832-41.437 113.626-8.656 10.3-7.32 25.725 2.98 34.382a24.43 24.43 0 0 0 15.693 5.722c7.23 0 14.04-3.17 18.69-8.702 34.1-40.572 52.882-92.08 52.882-145.03 0-52.946-18.778-104.45-52.88-145.024zM370.27 390.56a8.124 8.124 0 0 1-6.235 2.902 8.03 8.03 0 0 1-5.225-1.908c-3.433-2.886-3.88-8.027-.993-11.46 29.18-34.72 45.252-78.79 45.252-124.093s-16.072-89.372-45.253-124.092a8.08 8.08 0 0 1-1.876-5.936 8.084 8.084 0 0 1 2.874-5.527 8.02 8.02 0 0 1 5.22-1.907 8.13 8.13 0 0 1 6.238 2.902c31.64 37.648 49.065 85.437 49.065 134.56 0 49.127-17.426 96.916-49.067 134.56z"/></svg>