<svg xmlns="http://www.w3.org/2000/svg" viewBox="0 0 511.999 511.999"><path d="M236.952 109.588L117.45 173.966a18.998 18.998 0 0 1-9.017 2.275H27.187c-10.502 0-19.015 8.514-19.015 19.014v121.49c0 10.502 8.513 19.014 19.015 19.014h81.246c3.15 0 6.246.78 9.017 2.275l119.502 64.378c12.668 6.825 28.032-2.35 28.032-16.738V126.33c0-14.39-15.364-23.565-28.032-16.742z" fill="#f9c526"/><path d="M108.433 176.24H27.187c-10.502 0-19.015 8.514-19.015 19.014v121.49c0 10.502 8.513 19.014 19.015 19.014h81.246c1.635 0 3.257.216 4.828.628V175.613c-1.57.413-3.192.628-4.827.628z" fill="#145587"/><g fill="#FFF"><path d="M73.073 236.657H48.358c-4.514 0-8.17-3.657-8.17-8.17s3.657-8.172 8.17-8.172h24.715c4.514 0 8.17 3.657 8.17 8.17s-3.656 8.172-8.17 8.172zM73.073 291.686H48.358a8.17 8.17 0 0 1-8.17-8.17 8.17 8.17 0 0 1 8.17-8.172h24.715a8.17 8.17 0 0 1 8.17 8.17 8.17 8.17 0 0 1-8.17 8.172z"/></g><path d="M421.738 255.998l77.303-77.303c6.383-6.38 6.383-16.73 0-23.112-6.38-6.382-16.73-6.382-23.11 0l-77.304 77.303-77.304-77.303c-6.38-6.38-16.73-6.38-23.112 0-6.382 6.38-6.382 16.73 0 23.112l77.304 77.303L298.21 333.3c-6.382 6.383-6.382 16.73 0 23.113a16.288 16.288 0 0 0 11.555 4.787c4.182 0 8.365-1.596 11.556-4.787l77.305-77.303 77.303 77.303a16.29 16.29 0 0 0 11.555 4.787c4.183 0 8.365-1.596 11.555-4.787 6.382-6.38 6.382-16.73 0-23.112L421.738 256z" fill="#fb7686"/><path d="M381.337 261.433a7.684 7.684 0 0 0 0-10.87l-71.868-71.87c-6.384-6.38-6.384-16.728 0-23.11a16.26 16.26 0 0 1 5.925-3.773c-5.79-2.12-12.538-.876-17.185 3.772-6.382 6.38-6.382 16.73 0 23.112l77.304 77.303L298.21 333.3c-6.382 6.382-6.382 16.73 0 23.112a16.288 16.288 0 0 0 11.555 4.787c1.91 0 3.813-.35 5.63-1.015a16.23 16.23 0 0 1-5.926-3.773c-6.384-6.38-6.384-16.73 0-23.112l71.867-71.867zm18.587 16.227l-1.267 1.48 77.273 77.274a16.29 16.29 0 0 0 11.555 4.787c1.91 0 3.814-.35 5.63-1.013a16.25 16.25 0 0 1-5.927-3.773l-79.103-79.073a5.563 5.563 0 0 0-8.16.32zm87.263-122.077a16.28 16.28 0 0 1 5.927-3.773c-5.79-2.12-12.538-.876-17.185 3.773l-77.304 77.303-.292-.292 1.492 1.748a5.44 5.44 0 0 0 7.977.32l79.384-79.08z" opacity=".4" fill="#ff4e64"/><path d="M433.293 255.998l71.524-71.524a24.353 24.353 0 0 0 7.18-17.334c0-6.548-2.55-12.705-7.18-17.333a24.353 24.353 0 0 0-17.333-7.18c-6.55 0-12.704 2.55-17.334 7.18l-71.524 71.525-71.526-71.526c-4.63-4.63-10.786-7.18-17.334-7.18s-12.704 2.55-17.333 7.18c-4.63 4.63-7.18 10.785-7.18 17.334s2.55 12.705 7.18 17.334l71.526 71.524-71.527 71.524a24.353 24.353 0 0 0-7.18 17.334c0 6.55 2.55 12.705 7.178 17.333a24.353 24.353 0 0 0 17.336 7.18c6.548 0 12.704-2.55 17.334-7.18l71.526-71.527 71.524 71.527c4.63 4.63 10.786 7.18 17.334 7.18s12.704-2.55 17.333-7.18a24.353 24.353 0 0 0 7.18-17.334c0-6.55-2.55-12.705-7.18-17.334l-71.524-71.524zm59.97 94.637c-1.543 1.544-3.595 2.394-5.778 2.394s-4.235-.85-5.778-2.395l-77.303-77.303a8.15 8.15 0 0 0-5.78-2.393 8.15 8.15 0 0 0-5.778 2.392l-77.304 77.303a8.115 8.115 0 0 1-5.778 2.394 8.12 8.12 0 0 1-5.78-2.395 8.118 8.118 0 0 1-2.392-5.778c0-2.182.85-4.235 2.394-5.778l77.304-77.304a8.175 8.175 0 0 0 0-11.558l-77.305-77.303a8.118 8.118 0 0 1-2.393-5.778c0-2.182.85-4.235 2.394-5.778 1.543-1.545 3.594-2.394 5.778-2.394s4.235.85 5.778 2.393l77.304 77.302a8.173 8.173 0 0 0 11.556 0l77.303-77.304c1.543-1.543 3.595-2.393 5.778-2.393s4.235.85 5.78 2.394a8.118 8.118 0 0 1 2.392 5.777c0 2.182-.85 4.235-2.394 5.778l-77.302 77.303a8.172 8.172 0 0 0 0 11.556l77.304 77.303a8.118 8.118 0 0 1 2.393 5.778c0 2.184-.85 4.238-2.392 5.78zM245.95 99.115c-4.504 0-8.835 1.104-12.873 3.28L113.57 166.772a10.857 10.857 0 0 1-5.138 1.295H27.187C12.197 168.07 0 180.266 0 195.254v121.49c0 14.99 12.196 27.185 27.187 27.185h81.246c1.79 0 3.566.447 5.143 1.296l119.502 64.38c4.038 2.173 8.37 3.276 12.873 3.276h.002c6.96 0 13.852-2.79 18.91-7.652 5.348-5.14 8.293-12.086 8.293-19.56V126.33c0-15.007-12.203-27.214-27.204-27.214zM105.09 327.588H27.186c-5.98 0-10.844-4.864-10.844-10.842v-121.49c0-5.98 4.865-10.843 10.844-10.843h77.902v143.175zm151.723 58.085c0 3.826-1.78 6.34-3.275 7.777-2.044 1.964-4.81 3.09-7.586 3.09-1.77 0-3.494-.444-5.124-1.322l-119.396-64.322V181.102l119.396-64.32c1.63-.88 3.354-1.324 5.124-1.324 5.223 0 10.86 4.155 10.86 10.87v259.344z"/></svg>