<?xml version="1.0" encoding="iso-8859-1"?>
<!-- Generator: Adobe Illustrator 19.0.0, SVG Export Plug-In . SVG Version: 6.00 Build 0)  -->
<svg version="1.1" id="Layer_1" xmlns="http://www.w3.org/2000/svg" xmlns:xlink="http://www.w3.org/1999/xlink" x="0px" y="0px"
	 viewBox="0 0 511.999 511.999" style="enable-background:new 0 0 511.999 511.999;" xml:space="preserve">
<path style="fill:#F9C526;" d="M235.887,110.246l-118.965,64.089c-2.758,1.487-5.843,2.265-8.975,2.265H27.065
	c-10.455,0-18.93,8.474-18.93,18.928v120.945c0,10.454,8.475,18.928,18.93,18.928h80.882c3.133,0,6.217,0.778,8.975,2.265
	l118.965,64.089c12.611,6.793,27.906-2.341,27.906-16.664V126.911C263.794,112.587,248.498,103.453,235.887,110.246z"/>
<g>
	<path style="fill:#145587;" d="M107.947,176.6H27.065c-10.455,0-18.93,8.474-18.93,18.928v120.945
		c0,10.454,8.475,18.928,18.93,18.928h80.882c1.627,0,3.241,0.215,4.805,0.625v-160.05C111.189,176.385,109.574,176.6,107.947,176.6
		z"/>
	<path style="fill:#145587;" d="M422.531,450.681c-3.696,0-7.41-1.251-10.461-3.815c-6.879-5.781-7.768-16.045-1.987-22.923
		c39.493-46.988,61.243-106.632,61.243-167.944c0-61.312-21.752-120.958-61.245-167.948c-5.781-6.879-4.892-17.141,1.987-22.923
		c6.881-5.779,17.142-4.889,22.921,1.987c44.414,52.845,68.876,119.924,68.876,188.884c0,68.958-24.459,136.037-68.871,188.88
		C431.776,448.708,427.169,450.681,422.531,450.681z"/>
</g>
<path style="fill:#1F84CE;" d="M364.034,401.597c-3.694,0-7.408-1.251-10.459-3.816c-6.879-5.781-7.768-16.044-1.987-22.922
	c27.951-33.254,43.345-75.467,43.345-118.859c0-43.391-15.394-85.604-43.345-118.86c-5.781-6.879-4.892-17.141,1.989-22.922
	c6.874-5.781,17.14-4.893,22.921,1.988c32.869,39.11,50.973,88.757,50.973,139.794c0,51.04-18.103,100.686-50.975,139.796
	C373.278,399.624,368.673,401.597,364.034,401.597z"/>
<path style="fill:#ACDFEA;" d="M305.581,352.55c-3.692,0-7.406-1.249-10.457-3.812c-6.879-5.779-7.77-16.042-1.991-22.922
	c16.383-19.504,25.406-44.298,25.406-69.816c0-25.517-9.022-50.312-25.406-69.816c-5.779-6.88-4.887-17.142,1.994-22.921
	c6.881-5.779,17.145-4.887,22.921,1.994c21.301,25.356,33.03,57.584,33.03,90.744c0,33.161-11.731,65.388-33.03,90.745
	C314.829,350.576,310.22,352.55,305.581,352.55z"/>
<path style="opacity:0.2;enable-background:new    ;" d="M419.759,423.944c39.491-46.988,61.241-106.632,61.241-167.944
	c0-61.312-21.75-120.958-61.243-167.948c-5.783-6.879-4.894-17.141,1.985-22.923c1.703-1.43,3.614-2.449,5.612-3.073
	c-5.11-1.578-10.886-0.621-15.284,3.073c-6.879,5.782-7.768,16.045-1.987,22.923c39.493,46.99,61.245,106.635,61.245,167.948
	c0,61.311-21.75,120.956-61.243,167.944c-5.781,6.879-4.892,17.142,1.987,22.923c3.051,2.563,6.764,3.815,10.461,3.815
	c1.64,0,3.271-0.259,4.843-0.747c-2.002-0.623-3.921-1.631-5.628-3.066C414.867,441.085,413.978,430.822,419.759,423.944z"/>
<g>
	<path style="opacity:0.15;fill:#145587;enable-background:new    ;" d="M361.263,374.86
		c27.951-33.254,43.342-75.467,43.342-118.859c0-43.391-15.392-85.604-43.342-118.86c-5.781-6.879-4.892-17.141,1.987-22.922
		c1.701-1.431,3.612-2.45,5.61-3.074c-5.11-1.579-10.886-0.621-15.282,3.074c-6.881,5.781-7.77,16.044-1.989,22.922
		c27.951,33.257,43.345,75.469,43.345,118.86c0,43.392-15.394,85.605-43.345,118.859c-5.781,6.879-4.892,17.141,1.987,22.922
		c3.051,2.564,6.764,3.816,10.459,3.816c1.64,0,3.272-0.259,4.845-0.747c-2.004-0.623-3.923-1.632-5.63-3.067
		C356.369,392,355.482,381.738,361.263,374.86z"/>
	<path style="opacity:0.15;fill:#145587;enable-background:new    ;" d="M302.806,325.816
		c16.383-19.504,25.406-44.298,25.406-69.816c0-25.517-9.022-50.312-25.404-69.816c-5.781-6.88-4.887-17.142,1.994-22.921
		c1.701-1.428,3.61-2.447,5.608-3.071c-5.107-1.579-10.884-0.623-15.282,3.071c-6.881,5.779-7.772,16.042-1.994,22.921
		c16.383,19.504,25.406,44.299,25.406,69.816c0,25.518-9.022,50.313-25.406,69.816c-5.779,6.881-4.887,17.143,1.991,22.922
		c3.051,2.562,6.764,3.812,10.457,3.812c1.64,0,3.273-0.259,4.845-0.747c-2.002-0.623-3.919-1.63-5.627-3.064
		C297.919,342.96,297.026,332.697,302.806,325.816z"/>
</g>
<g>
	<path style="fill:#FFFFFF;" d="M72.745,236.744H48.141c-4.494,0-8.135-3.641-8.135-8.135c0-4.494,3.641-8.135,8.135-8.135h24.605
		c4.494,0,8.135,3.641,8.135,8.135C80.88,233.102,77.239,236.744,72.745,236.744z"/>
	<path style="fill:#FFFFFF;" d="M72.745,291.526H48.141c-4.494,0-8.135-3.641-8.135-8.135c0-4.494,3.641-8.135,8.135-8.135h24.605
		c4.494,0,8.135,3.641,8.135,8.135C80.88,287.884,77.239,291.526,72.745,291.526z"/>
</g>
<path d="M441.217,61.883c-4.647-5.53-11.459-8.701-18.689-8.701c-5.728,0-11.301,2.03-15.694,5.721
	c-10.301,8.659-11.637,24.083-2.979,34.384c38.264,45.529,59.337,103.314,59.337,162.715s-21.073,117.184-59.335,162.71
	c-8.657,10.301-7.321,25.726,2.98,34.385c4.391,3.689,9.964,5.72,15.694,5.72c7.229,0,14.04-3.171,18.689-8.702
	c45.643-54.305,70.779-123.243,70.779-194.113C512,185.13,486.862,116.191,441.217,61.883z M428.766,439.645
	c-1.55,1.844-3.822,2.901-6.235,2.901c-1.349,0-3.351-0.331-5.227-1.907c-3.434-2.886-3.88-8.028-0.993-11.462
	c40.723-48.451,63.151-109.953,63.151-173.177c0-63.222-22.428-124.726-63.152-173.181c-2.885-3.434-2.439-8.576,0.991-11.46
	c1.879-1.577,3.88-1.908,5.228-1.908c2.413,0,4.686,1.056,6.234,2.899c43.184,51.383,66.968,116.604,66.968,183.65
	C495.731,323.047,471.949,388.267,428.766,439.645z M324.277,160.026c-4.648-5.536-11.461-8.709-18.694-8.709
	c-5.727,0-11.298,2.03-15.688,5.717c-4.992,4.192-8.052,10.078-8.616,16.572c-0.565,6.494,1.433,12.819,5.626,17.811
	c15.155,18.04,23.5,40.976,23.5,64.584c0,23.609-8.345,46.544-23.5,64.585c-8.654,10.303-7.314,25.727,2.988,34.382
	c4.391,3.688,9.962,5.718,15.689,5.718c7.233,0,14.047-3.175,18.696-8.707c22.528-26.82,34.936-60.906,34.936-95.977
	C359.213,220.928,346.805,186.843,324.277,160.026z M311.818,341.514c-1.55,1.844-3.822,2.902-6.238,2.902
	c-1.348,0-3.348-0.331-5.224-1.906c-3.434-2.885-3.88-8.026-0.996-11.461c17.613-20.966,27.313-47.618,27.313-75.048
	c0-27.429-9.699-54.081-27.312-75.048c-1.398-1.663-2.064-3.771-1.875-5.936c0.189-2.165,1.208-4.127,2.871-5.524
	c1.876-1.576,3.878-1.907,5.225-1.907c2.414,0,4.687,1.058,6.237,2.904c20.07,23.892,31.123,54.26,31.123,85.511
	C342.944,287.25,331.889,317.618,311.818,341.514z M244.846,99.822c-4.485,0-8.796,1.098-12.816,3.264l-118.969,64.09
	c-1.565,0.844-3.334,1.29-5.115,1.29H27.065C12.141,168.465,0,180.605,0,195.528v120.945c0,14.922,12.141,27.062,27.065,27.062
	h80.882c1.781,0,3.549,0.446,5.118,1.291l118.965,64.09c4.02,2.164,8.331,3.263,12.815,3.263c0.001,0,0.001,0,0.001,0
	c6.927,0,13.79-2.777,18.826-7.617c5.323-5.117,8.255-12.032,8.255-19.471V126.911C271.928,111.974,259.779,99.822,244.846,99.822z
	 M104.617,327.265H27.065c-5.952,0-10.795-4.842-10.795-10.793V195.528c0-5.951,4.843-10.793,10.795-10.793h77.552V327.265z
	 M255.659,385.089c0,3.809-1.773,6.313-3.26,7.742c-2.035,1.957-4.788,3.078-7.552,3.078c-1.763,0-3.478-0.443-5.101-1.317
	l-118.859-64.033v-149.12l118.859-64.031c1.623-0.875,3.338-1.318,5.101-1.318c5.2,0,10.813,4.137,10.813,10.821V385.089z
	 M382.726,110.974c-4.648-5.533-11.461-8.705-18.691-8.705c-5.731,0-11.304,2.033-15.69,5.721
	c-4.992,4.193-8.051,10.08-8.614,16.574c-0.564,6.494,1.436,12.819,5.63,17.809c26.721,31.795,41.437,72.149,41.437,113.627
	c0,41.48-14.716,81.832-41.437,113.626c-8.657,10.301-7.321,25.725,2.979,34.382c4.391,3.69,9.963,5.722,15.693,5.722
	c7.229,0,14.04-3.171,18.689-8.702c34.102-40.572,52.883-92.079,52.883-145.029C435.606,203.052,416.827,151.547,382.726,110.974z
	 M370.27,390.561c-1.55,1.844-3.822,2.901-6.235,2.901c-1.348,0-3.349-0.331-5.225-1.908c-3.433-2.886-3.879-8.027-0.993-11.461
	c29.181-34.719,45.252-78.79,45.252-124.092s-16.071-89.373-45.252-124.093c-1.398-1.664-2.064-3.772-1.876-5.936
	c0.188-2.165,1.207-4.127,2.873-5.527c1.874-1.576,3.873-1.907,5.221-1.907c2.413,0,4.686,1.058,6.237,2.902
	c31.641,37.648,49.065,85.437,49.065,134.561C419.337,305.127,401.911,352.916,370.27,390.561z"/>
<g>
</g>
<g>
</g>
<g>
</g>
<g>
</g>
<g>
</g>
<g>
</g>
<g>
</g>
<g>
</g>
<g>
</g>
<g>
</g>
<g>
</g>
<g>
</g>
<g>
</g>
<g>
</g>
<g>
</g>
</svg>
