<?xml version="1.0" encoding="iso-8859-1"?>
<!-- Generator: Adobe Illustrator 19.0.0, SVG Export Plug-In . SVG Version: 6.00 Build 0)  -->
<svg version="1.1" id="Layer_1" xmlns="http://www.w3.org/2000/svg" xmlns:xlink="http://www.w3.org/1999/xlink" x="0px" y="0px"
	 viewBox="0 0 511.999 511.999" style="enable-background:new 0 0 511.999 511.999;" xml:space="preserve">
<path style="fill:#F9C526;" d="M236.952,109.588L117.45,173.966c-2.771,1.494-5.869,2.275-9.017,2.275H27.187
	c-10.502,0-19.015,8.513-19.015,19.013v121.491c0,10.501,8.513,19.013,19.015,19.013h81.246c3.149,0,6.246,0.781,9.017,2.275
	l119.502,64.378c12.668,6.824,28.032-2.351,28.032-16.739V126.329C264.984,111.94,249.62,102.765,236.952,109.588z"/>
<path style="fill:#145587;" d="M108.433,176.241H27.187c-10.502,0-19.015,8.513-19.015,19.013v121.491
	c0,10.501,8.513,19.013,19.015,19.013h81.246c1.635,0,3.257,0.216,4.828,0.628V175.613
	C111.691,176.026,110.068,176.241,108.433,176.241z"/>
<g>
	<path style="fill:#FFFFFF;" d="M73.073,236.657H48.358c-4.514,0-8.171-3.657-8.171-8.171s3.658-8.171,8.171-8.171h24.715
		c4.514,0,8.171,3.657,8.171,8.171S77.587,236.657,73.073,236.657z"/>
	<path style="fill:#FFFFFF;" d="M73.073,291.686H48.358c-4.514,0-8.171-3.659-8.171-8.171c0-4.514,3.658-8.171,8.171-8.171h24.715
		c4.514,0,8.171,3.658,8.171,8.171C81.244,288.029,77.587,291.686,73.073,291.686z"/>
</g>
<path style="fill:#FB7686;" d="M421.738,255.998l77.303-77.303c6.382-6.381,6.382-16.729,0-23.112
	c-6.381-6.382-16.73-6.382-23.112,0l-77.303,77.303l-77.304-77.303c-6.381-6.381-16.73-6.381-23.112,0
	c-6.382,6.381-6.382,16.729,0,23.112l77.304,77.303l-77.304,77.303c-6.382,6.382-6.382,16.729,0,23.112
	c3.191,3.192,7.374,4.787,11.555,4.787c4.182,0,8.365-1.596,11.556-4.787l77.304-77.303l77.303,77.303
	c3.191,3.191,7.373,4.787,11.555,4.787c4.183,0,8.365-1.596,11.555-4.787c6.382-6.381,6.382-16.729,0-23.112L421.738,255.998z"/>
<path style="opacity:0.4;fill:#FF4E64;enable-background:new    ;" d="M381.337,261.433c3.003-3.002,3.003-7.868,0-10.87
	l-71.868-71.869c-6.383-6.381-6.383-16.729,0-23.112c1.735-1.734,3.765-2.98,5.926-3.772c-5.791-2.121-12.538-0.876-17.185,3.772
	c-6.382,6.381-6.382,16.729,0,23.112l77.304,77.303l-77.304,77.303c-6.382,6.382-6.382,16.729,0,23.112
	c3.191,3.192,7.374,4.787,11.555,4.787c1.909,0,3.813-0.349,5.63-1.014c-2.162-0.793-4.194-2.038-5.926-3.773
	c-6.383-6.381-6.383-16.729,0-23.112L381.337,261.433z M399.924,277.66l-1.267,1.481l77.273,77.273
	c3.191,3.191,7.373,4.787,11.555,4.787c1.909,0,3.814-0.35,5.63-1.014c-2.161-0.793-4.194-2.038-5.927-3.773l-79.103-79.073
	C405.791,275.049,402.031,275.195,399.924,277.66z M487.187,155.583c1.735-1.734,3.766-2.98,5.927-3.773
	c-5.791-2.121-12.538-0.876-17.185,3.773l-77.303,77.303l-0.292-0.292l1.492,1.748c2.058,2.411,5.733,2.559,7.977,0.321
	L487.187,155.583z"/>
<path d="M433.293,255.998l71.524-71.524c4.63-4.629,7.181-10.786,7.181-17.334c0-6.548-2.551-12.705-7.18-17.333
	c-4.629-4.63-10.786-7.181-17.334-7.181c-6.549,0-12.704,2.551-17.334,7.18l-71.524,71.526l-71.526-71.526
	c-4.63-4.629-10.786-7.179-17.334-7.179s-12.704,2.549-17.333,7.179c-4.63,4.629-7.181,10.785-7.181,17.334
	s2.551,12.705,7.18,17.334l71.527,71.524l-71.526,71.524c-4.63,4.629-7.181,10.786-7.181,17.334c0,6.549,2.551,12.705,7.179,17.333
	c4.629,4.63,10.786,7.181,17.335,7.181c6.548,0,12.704-2.551,17.334-7.18l71.526-71.527l71.524,71.527
	c4.63,4.629,10.786,7.18,17.334,7.18s12.704-2.551,17.333-7.18c4.63-4.629,7.181-10.786,7.181-17.334
	c0-6.549-2.551-12.705-7.18-17.334L433.293,255.998z M493.263,350.635c-1.543,1.544-3.595,2.394-5.778,2.394
	s-4.235-0.85-5.778-2.394l-77.303-77.303c-1.596-1.595-3.688-2.393-5.779-2.393c-2.091,0-4.183,0.798-5.779,2.393l-77.304,77.303
	c-1.543,1.544-3.595,2.394-5.778,2.394c-2.183,0-4.235-0.85-5.779-2.394c-1.543-1.543-2.393-3.595-2.393-5.778
	c0-2.182,0.85-4.235,2.394-5.778l77.304-77.303c1.532-1.533,2.393-3.611,2.393-5.779s-0.861-4.245-2.393-5.779l-77.305-77.303
	c-1.543-1.543-2.393-3.595-2.393-5.778c0-2.182,0.85-4.235,2.394-5.778c1.543-1.544,3.594-2.393,5.778-2.393
	s4.235,0.849,5.778,2.393l77.304,77.303c3.192,3.19,8.365,3.19,11.556,0l77.303-77.304c1.543-1.543,3.595-2.393,5.778-2.393
	s4.235,0.85,5.779,2.394c1.543,1.543,2.393,3.595,2.393,5.778c0,2.182-0.85,4.235-2.394,5.778l-77.303,77.303
	c-3.191,3.192-3.191,8.365,0,11.556l77.304,77.303c1.543,1.543,2.393,3.595,2.393,5.778
	C495.655,347.039,494.806,349.093,493.263,350.635z M245.951,99.116c-4.505,0-8.836,1.103-12.874,3.278l-119.506,64.379
	c-1.572,0.848-3.349,1.295-5.139,1.295H27.187C12.196,168.07,0,180.266,0,195.254v121.491c0,14.99,12.196,27.184,27.187,27.184
	h81.246c1.79,0,3.566,0.448,5.143,1.297l119.502,64.379c4.038,2.174,8.369,3.277,12.873,3.277c0.001,0,0.001,0,0.001,0
	c6.959,0,13.852-2.789,18.911-7.652c5.347-5.14,8.292-12.086,8.292-19.559V126.329C273.156,111.323,260.952,99.116,245.951,99.116z
	 M105.089,327.587H27.187c-5.979,0-10.844-4.864-10.844-10.842V195.254c0-5.978,4.865-10.842,10.844-10.842h77.902V327.587z
	 M256.813,385.672c0,3.826-1.781,6.341-3.275,7.777c-2.044,1.965-4.809,3.092-7.586,3.092c-1.77,0-3.494-0.445-5.124-1.323
	l-119.396-64.322V181.102l119.396-64.32c1.63-0.879,3.354-1.324,5.124-1.324c5.223,0,10.861,4.155,10.861,10.87V385.672z"/>
<g>
</g>
<g>
</g>
<g>
</g>
<g>
</g>
<g>
</g>
<g>
</g>
<g>
</g>
<g>
</g>
<g>
</g>
<g>
</g>
<g>
</g>
<g>
</g>
<g>
</g>
<g>
</g>
<g>
</g>
</svg>
