<?xml version="1.0"?>
<svg xmlns="http://www.w3.org/2000/svg"  xmlns:xlink="http://www.w3.org/1999/xlink">
  <symbol id="fish_blue">
   <path stroke="null" fill="#F74B4B" d="M116.152 227.184c0-25.504 19.258-46.178 43.013-46.178h49.386c0 25.504-19.257 46.178-43.012 46.178h-49.386zM258.978 248.104c-11.23-22.474-3.363-50.465 17.57-62.52l43.52-25.064c11.23 22.474 3.362 50.465-17.57 62.52l-43.52 25.064zM292.326 115.977c14.87-29.76 4.454-66.825-23.266-82.79L211.433 0c-14.87 29.76-4.453 66.825 23.266 82.79l57.626 33.187z"/><g stroke="null" fill="#F74B4B"><path d="M73.776 131.92H50.168C22.46 131.92 0 107.81 0 78.065h23.608c27.707 0 50.168 24.113 50.168 53.857z"/><path d="M73.776 131.92H50.168C22.46 131.92 0 156.035 0 185.78h23.608c27.707 0 50.168-24.114 50.168-53.86z"/></g><path stroke="null" fill="#51CAF4" d="M458.54 131.93c-36.15 26.376-75.54 45.228-116.32 56.554a349.72 349.72 0 0 1-93.74 12.807c-73.33 0-146.66-23.112-210.05-69.36 90.63-66.133 201.58-84.984 303.8-56.567 40.78 11.327 80.16 30.19 116.31 56.566z"/><path stroke="null" fill="#85E1F9" d="M458.537 131.93c-63.39 46.25-136.722 69.364-210.053 69.364-73.332 0-146.663-23.113-210.053-69.365h420.107z"/><path stroke="null" fill="#45BDDD" d="M458.54 131.93c-36.15 26.376-75.54 45.228-116.32 56.554-7.28-17.242-11.34-36.394-11.34-56.555 0-20.173 4.06-39.315 11.35-56.567 40.78 11.327 80.16 30.19 116.31 56.566z"/><g stroke="null"><circle fill="#FFF" r="16.016" cy="131.921" cx="370.941"/><circle fill="#4D4D4D" r="9.799" cy="131.921" cx="370.941"/></g>
  </symbol>
	<symbol id="fish_gold">
     <g stroke="null"><path d="M324.35 109.288c16.8 0 30.41 13.567 30.41 30.292s-13.61 30.292-30.41 30.292c-16.79 0-30.4-13.567-30.4-30.292s13.61-30.292 30.4-30.292z" fill="#F2F2F2"/><path d="M272.12 33.485c8.02 8 14.2 17.402 18.32 27.602-.93-.19-1.86-.37-2.79-.548a199.567 199.567 0 0 0-36.76-3.408c-14.52 0-28.83 1.584-42.72 4.632a82.47 82.47 0 0 1-9.34-38.11c0-4.433.36-8.906 1.09-13.348 26.41-4.294 53.28 4.333 72.2 23.18z" fill="#F7B239"/><path d="M412.43 139.58c-30.13 41.697-75 69.717-124.78 79.03-14.61-22.83-23.07-49.944-23.07-79.03s8.46-56.19 23.07-79.03v-.01c.93.178 1.86.358 2.79.547a199.59 199.59 0 0 1 51.21 17.85c27.7 14.155 52.08 34.754 70.78 60.643zm-57.67 0c0-16.725-13.61-30.292-30.41-30.292-16.79 0-30.4 13.567-30.4 30.292s13.61 30.292 30.4 30.292c16.8 0 30.41-13.567 30.41-30.292z" fill="#F7B239"/><path d="M287.65 60.54v.01c-14.61 22.84-23.07 49.944-23.07 79.03s8.46 56.2 23.07 79.03a198.632 198.632 0 0 1-36.76 3.418c-6.02 0-12.02-.27-17.96-.807a56.13 56.13 0 0 0 8.6-40.073 56.274 56.274 0 0 0-9.11-.737c-14.86 0-29.28 5.848-39.97 16.496a55.987 55.987 0 0 0-9.79 13.11 201.362 201.362 0 0 1-22.51-9.803A198.807 198.807 0 0 1 89.38 139.6c.63-.01 1.25-.02 1.88-.02-.63 0-1.25-.01-1.88-.02a198.502 198.502 0 0 1 16.2-19.623c27.57-29.375 63.41-49.606 102.59-58.173a199.232 199.232 0 0 1 42.72-4.632c12.44 0 24.75 1.156 36.76 3.407z" fill="#F95428"/><path d="M177.57 159.213a199.696 199.696 0 0 1-16.19-19.613c.63-.01 1.25-.02 1.88-.02-.63 0-1.25-.01-1.88-.02a198.502 198.502 0 0 1 16.2-19.623c27.57-29.375 63.41-49.606 102.59-58.173 2.246-.493 4.507-.933 6.775-1.348a199.56 199.56 0 0 0-36.055-3.284c-14.52 0-28.83 1.584-42.72 4.632-39.18 8.567-75.02 28.798-102.59 58.173a198.502 198.502 0 0 0-16.2 19.623c.63.01 1.25.02 1.88.02-.63 0-1.25.01-1.88.02a198.807 198.807 0 0 0 70.77 60.613 201.36 201.36 0 0 0 22.51 9.802 55.987 55.987 0 0 1 9.79-13.11 56.525 56.525 0 0 1 15.812-11.09 198.326 198.326 0 0 1-30.692-26.602z" fill="#E54728"/><path d="M241.53 181.147a56.13 56.13 0 0 1-8.6 40.074h-.01a55.527 55.527 0 0 1-7.21 8.816c-10.69 10.65-25.11 16.496-39.97 16.496-3.03 0-6.07-.24-9.11-.737a56.11 56.11 0 0 1 6.03-35.78 55.987 55.987 0 0 1 9.79-13.11c10.69-10.647 25.11-16.495 39.97-16.495 3.03 0 6.07.24 9.11.737zM105.57 119.927l.01.01a198.502 198.502 0 0 0-16.2 19.623c-21.21-.478-41.66-9.035-56.92-24.255a82.612 82.612 0 0 1-23.29-71.91c26.41-4.292 53.29 4.334 72.21 23.18 14.45 14.414 22.93 33.44 24.19 53.352zM105.57 159.213a82.757 82.757 0 0 1-24.19 53.372c-15.72 15.648-36.94 24.265-58.81 24.265-4.45 0-8.93-.36-13.4-1.086-4.31-26.307 4.36-53.063 23.29-71.91 15.26-15.22 35.71-23.776 56.92-24.254a199.696 199.696 0 0 0 16.19 19.613z" fill="#F7B239"/><path d="M174.78 104.724a7.504 7.504 0 0 1-6.77-4.247c-1.79-3.722-.21-8.183 3.525-9.964A184.613 184.613 0 0 1 211.51 76.84a184.005 184.005 0 0 1 39.38-4.268c4.142 0 7.5 3.345 7.5 7.47s-3.358 7.472-7.5 7.472c-12.14 0-24.305 1.318-36.16 3.92a169.625 169.625 0 0 0-36.718 12.556 7.493 7.493 0 0 1-3.233.734zM79.617 113.584c-3.136 0-6.06-1.974-7.11-5.098-2.573-7.648-6.968-14.717-12.708-20.442-7.81-7.777-18.16-13.004-29.14-14.714-4.094-.636-6.893-4.458-6.253-8.535.64-4.076 4.47-6.866 8.568-6.227 14.098 2.195 27.392 8.912 37.433 18.914 7.372 7.353 13.015 16.43 16.32 26.254 1.317 3.912-.8 8.146-4.727 9.458a7.51 7.51 0 0 1-2.383.39zM239.86 45.77a7.495 7.495 0 0 1-3.298-.765 53.095 53.095 0 0 0-15.17-4.768c-4.092-.636-6.892-4.457-6.252-8.533.64-4.077 4.48-6.867 8.567-6.23a68.11 68.11 0 0 1 19.464 6.118c3.72 1.818 5.254 6.295 3.43 9.998-1.303 2.645-3.968 4.18-6.74 4.18zM314.948 99.535c-.907 0-1.83-.166-2.727-.514a169.75 169.75 0 0 0-16.425-5.44c-3.993-1.1-6.335-5.214-5.232-9.19 1.104-3.977 5.236-6.31 9.227-5.212 6.03 1.66 12.05 3.654 17.89 5.925 3.857 1.5 5.764 5.833 4.257 9.677-1.158 2.95-3.99 4.755-6.99 4.755z" fill="#FFF"/><circle cx="155.223" cy="108.164" r="7.471" fill="#FFF"/><g fill="#333"><path d="M418.515 135.216c-19.03-26.345-44.43-48.104-73.45-62.927a206.855 206.855 0 0 0-49.275-17.704A89.89 89.89 0 0 0 277.426 28.2c-20.583-20.49-50.01-29.937-78.714-25.27a7.485 7.485 0 0 0-6.194 6.172 90.416 90.416 0 0 0-1.184 14.55c0 11.265 2.163 22.503 6.287 32.98-32.603 8.656-62.344 25.053-86.854 47.63a90.224 90.224 0 0 0-24.084-42.97C66.108 40.798 36.68 31.352 7.966 36.02a7.484 7.484 0 0 0-6.194 6.172 90.202 90.202 0 0 0-1.185 14.55c0 23.77 9.684 47.043 26.563 63.845a90.528 90.528 0 0 0 27.96 18.992 90.514 90.514 0 0 0-27.956 18.99c-20.58 20.488-30.07 49.796-25.383 78.4a7.485 7.485 0 0 0 6.196 6.17 91.446 91.446 0 0 0 14.607 1.178c23.866 0 47.232-9.64 64.11-26.452a90.23 90.23 0 0 0 24.092-43.03c13.78 12.68 29.267 23.51 45.954 32.023a207.872 207.872 0 0 0 15.85 7.25c-3.942 10.353-5.186 21.697-3.354 32.89a7.488 7.488 0 0 0 6.195 6.17 63.89 63.89 0 0 0 10.252.827c16.847 0 33.256-6.642 45.34-18.68a63.56 63.56 0 0 0 5.544-6.317c4.748.33 9.553.5 14.337.5 66.25 0 128.912-31.984 167.62-85.555a7.447 7.447 0 0 0 .002-8.73zM206.63 16.99c22.157-1.946 44.324 5.984 60.187 21.774a75.442 75.442 0 0 1 10.138 12.555c-21.368-2.695-43.313-2.05-64.51 1.952-4.006-9.33-6.112-19.462-6.112-29.62 0-2.216.1-4.443.297-6.663zM15.587 56.742c0-2.217.1-4.445.297-6.664 22.175-1.95 44.333 5.983 60.188 21.776 12.3 12.26 19.95 28.297 21.748 45.44a206.145 206.145 0 0 0-12.088 14.61c-18.13-1.308-35.042-8.992-47.974-21.883-14.09-14.026-22.17-33.446-22.17-53.28zm60.486 150.56c-14.083 14.027-33.583 22.074-53.5 22.074-2.226 0-4.462-.1-6.69-.296-1.953-22.083 6.014-44.152 21.88-59.946 12.926-12.887 29.84-20.57 47.99-21.88a205.212 205.212 0 0 0 12.07 14.56c-1.795 17.168-9.445 33.222-21.75 45.488zm144.332 17.45c-9.788 9.75-23.29 14.875-36.958 14.25a48.883 48.883 0 0 1 14.31-36.814c9.787-9.75 23.29-14.874 36.957-14.253a48.887 48.887 0 0 1-14.31 36.815zm24.534-10.3c4.444-10.785 5.923-22.73 3.995-34.51a7.486 7.486 0 0 0-6.195-6.17c-20.28-3.294-41.06 3.38-55.59 17.852a63.53 63.53 0 0 0-7.624 9.184 193.02 193.02 0 0 1-15.956-7.25c-25.27-12.892-47.598-31.49-64.864-53.983 27.474-35.86 66.716-60.818 111.08-70.52 21.517-4.725 44.005-5.66 65.835-2.84-12.16 22.452-18.544 47.593-18.544 73.363 0 25.766 6.383 50.9 18.54 73.35a190.947 190.947 0 0 1-24.722 1.627c-1.984 0-3.97-.042-5.955-.104zm46.353-4.233c-12.586-21.358-19.216-45.67-19.216-70.64 0-24.976 6.633-49.292 19.224-70.653a191.736 191.736 0 0 1 46.925 16.66c22.43 11.456 42.52 27.39 58.81 46.522h-10.508c-4.143 0-7.5 3.344-7.5 7.47s3.357 7.47 7.5 7.47h10.504c-27.387 32.18-64.74 54.31-105.737 63.17z"/><path d="M324.353 101.822c-20.9 0-37.906 16.938-37.906 37.758s17.005 37.758 37.906 37.758S362.26 160.4 362.26 139.58s-17.006-37.758-37.907-37.758zm0 60.576c-12.63 0-22.906-10.236-22.906-22.817s10.275-22.816 22.906-22.816S347.26 127 347.26 139.58 336.982 162.4 324.352 162.4z"/><circle cx="324.353" cy="139.58" r="7.471"/></g></g>
	</symbol>
	<symbol id = "fish_bone">
     <g stroke="null"><path d="M1258.03 1950.933c0-50 12.998-79.998 12.998-79.998-16.733 0-47.463 48.994-57.055 65h-40.975c2.12-6.48 5.572-12.517 10.2-17.586a48.634 48.634 0 0 1 2.86-2.885l-13.593-14.67a68.69 68.69 0 0 0-4.042 4.073c-8 8.764-13.525 19.564-16.135 31.066h-34.76c2.61-11.518 8.14-22.332 16.148-31.104a68.79 68.79 0 0 1 4.046-4.075l-13.59-14.674a88.97 88.97 0 0 0-5.23 5.27c-11.36 12.445-18.87 28.066-21.75 44.583h-34.786c2.885-16.566 10.41-32.234 21.806-44.717a88.435 88.435 0 0 1 5.24-5.28l-13.593-14.67a108.875 108.875 0 0 0-6.425 6.472c-14.74 16.148-24.23 36.643-27.286 58.195h-32.017v-55c-110 0-150 70-150 70s40 70 150 70v-55h31.982c3.467 24.566 15.45 47.71 33.745 64.667l13.596-14.668c-14.243-13.2-23.773-30.995-27.078-50h34.788c3.305 18.955 12.81 36.694 27.007 49.852l13.594-14.67c-10.136-9.394-17.18-21.804-20.22-35.18h34.764c3.04 13.362 10.075 25.757 20.196 35.138l13.596-14.668c-6.04-5.598-10.522-12.713-13.072-20.47h40.984c9.592 16.005 40.32 65 57.055 65 0 0-13-30-13-80zm-327.937.002c-5.523 0-10-4.477-10-10s4.477-10 10-10c5.522 0 10 4.477 10 10s-4.478 10-10 10z" transform="matrix(.21582 0 0 .23265 -185.63 -435.275)"/></g>
  	</symbol>
	<symbol id= "fish_green">
	<path fill="none" d="M-1-1h406v214H-1z"/><g><title>Layer 1</title><path fill="#3F2D20" d="M70.452 87.31c-1.975 0-3.92.8-5.323 2.194a7.598 7.598 0 0 0-2.195 5.323c0 1.974.8 3.908 2.194 5.312a7.594 7.594 0 0 0 5.322 2.204 7.567 7.567 0 0 0 5.31-2.205 7.562 7.562 0 0 0 2.207-5.313c0-1.985-.804-3.93-2.207-5.323a7.578 7.578 0 0 0-5.31-2.195zM277.897 94.074c-21.136-12.192-53.837-26.14-119.87-26.14-.57 0-1.142.002-1.716.004a7.517 7.517 0 0 0 .028 15.035h.027c63.58-.248 94.335 12.772 114.02 24.126a7.515 7.515 0 0 0 10.268-2.756 7.52 7.52 0 0 0-2.756-10.27z"/><g fill="#84BD93"><path d="M290.353 81.474c.34.22.68.44 1.013.662-.33-.222-.674-.442-1.013-.662zM294.018 83.978c.097.07.2.14.295.21-.096-.07-.2-.14-.295-.21zM287.074 79.425zM279.268 75.156c.3.15.61.3.91.452-.3-.153-.61-.3-.91-.452zM306.395 95.588zM304.59 93.39c.183.21.348.418.525.627-.177-.21-.342-.418-.525-.626zM275.132 73.168zM302.62 91.28c-.214-.22-.447-.435-.668-.653.22.217.453.434.67.653zM296.95 86.207c.296.236.58.475.868.712-.29-.24-.572-.477-.868-.713zM299.49 88.34zM283.704 77.48c.28.156.548.314.826.47-.278-.156-.546-.314-.826-.47zM63.066 96.132zM271.096 71.374c.412.176.815.355 1.222.533-.407-.178-.81-.357-1.222-.533zM76.808 90.847c-.037-.058-.06-.124-.098-.182.04.058.06.124.098.182zM307.44 97.028c-6.94-4.787-15.497-9.242-25.437-13.163-27.89-11.002-64.223-17.06-102.307-17.06-7.122 0-14.106.41-20.914 1.135 65.52.107 98.06 13.99 119.115 26.135a7.517 7.517 0 0 1-3.763 14.03c-1.275 0-2.566-.695-3.75-1.377C250.7 95.374 219.945 82.23 156.367 82.23h-.028c-4.14 0-7.5-2.976-7.517-7.118-.01-3.08 1.837-5.542 4.485-6.713-.01.003-.023.098-.033.102-30.004 4-56.166 14.67-74.394 23.367-.5.237-.973 1.36-1.465 1.36h-.006c.363 0 .56 1.24.56 2.217 0 1.974-.8 3.598-2.205 5-1.403 1.403-3.338 2.05-5.31 2.05-1.976 0-3.92-.88-5.324-2.282-.663-.668-1.18-1.5-1.554-2.357.162.37.346.714.565 1.057-12.918 7.2-22.115 13.846-27.356 18.38a266.79 266.79 0 0 0 27.16 15.898c7.338 3.738 16.002 7.7 25.727 11.372 30.477-13.896 26.67-36.31 26.487-37.284-.852-4.063 1.758-8.01 5.822-8.863 4.06-.853 8.054 1.788 8.906 5.852 2.19 10.436-.586 31.264-22.128 46.61 16.808 4.786 35.747 8.13 55.904 8.13 38.085 0 74.418-6.06 102.307-17.06 24.78-9.777 40.99-22.868 44.883-36.138-.865-2.95-2.37-5.887-4.412-8.784zM154.48 68.196c.094-.024.18-.066.275-.086-.096.02-.182.062-.275.086zM63.428 97.43zM21.997 106.523c-.195-.155-.405-.32-.593-.472.188.153.4.318.593.473zM24.975 108.854zM36.446 117.056zM34.073 115.446z"/></g><g fill="#FDD44B"><path d="M220.546 26.415c-16.024 1.073-38.255 3.917-58.74 11.202-1.047.015-2.07.086-3.11.116 1.987-.058 3.957-.153 5.965-.153 19.05 0 37.71 1.48 55.25 4.28l.962-23.36-.326 7.915zM133.104 39.947zM152.618 37.96c-1.4.08-2.775.207-4.162.314 1.386-.107 2.763-.233 4.162-.314zM142.743 38.748c-1.736.18-3.437.414-5.15.63 1.713-.217 3.415-.45 5.15-.63z"/></g><g fill="#84BD93"><path d="M332.094 111.98c-.17-.23-.322-.445-.484-.67.162.225.312.44.484.67zM330.588 109.868zM334.32 114.79c-.17-.205-.357-.417-.523-.62.165.203.352.414.524.62zM338.13 118.994c.324.33.645.657.984.99-.34-.332-.66-.66-.984-.99zM336.657 117.45c-.288-.313-.58-.626-.854-.934.275.31.564.62.854.933zM329.29 107.887c-.11-.177-.23-.36-.333-.53.105.172.22.352.333.53zM379.46 107.328c-.368-1.693.002-3.047.004-3.054l4.78-22.876c-25.366 8.02-37.253 25.063-41.166 31.98 2.74 4.84 9.438 14.71 21.982 22.935 6.254 2.355 13.36 4.198 21.526 5.115l-7.12-34.08c-.004-.005-.004-.012-.006-.02zM353.267 130.756c-.516-.3-1.006-.61-1.505-.92.5.31.99.618 1.505.92zM341.82 122.51c-.293-.26-.558-.518-.843-.777.285.26.55.517.844.777zM363.458 135.708c-.604-.243-1.217-.48-1.803-.73.586.25 1.2.488 1.803.73zM358.09 133.333c-.447-.22-.895-.438-1.33-.662.435.225.883.443 1.33.663zM349.466 128.37zM345.872 125.802c-.395-.3-.803-.598-1.183-.9.38.303.787.6 1.182.9z"/></g><g fill="#FDD44B"><path d="M141.454 172.49c.866.107 1.23.226 2.102.322 2.895 6.563 8.048 14.412 18.048 19.486V174.01c-5-.133-13.24-.675-20.15-1.52zM137.432 172.192z"/></g><path fill="#3F2D20" d="M394.502 105.812l8.825-42.23a7.51 7.51 0 0 0-1.58-6.344 7.51 7.51 0 0 0-5.95-2.708c-41.664.95-64.345 21.268-75.08 35.277-8.737-13.263-25.29-25.067-48.233-34.117-11.39-4.494-24.078-8.2-37.64-11.074l1.37-33.27a7.518 7.518 0 0 0-7.198-7.82C224.94 3.353 130.098 0 92.868 49.395c-14.912 4.794-27.993 10.418-38.583 15.63-17.398 8.56-41.774 24.123-50.16 35.258-2.843 3.772-4.125 6.456.27 10.845 10.393 10.38 53.058 42.966 109.79 56.706.99 4.498 3.028 11.152 7.183 17.948 6.663 10.897 20.142 24.348 46.52 26.548a7.525 7.525 0 0 0 5.716-1.96 7.517 7.517 0 0 0 2.426-5.53v-30.99c35.78-1.1 69.676-7.353 96.456-17.917 22.94-9.05 39.494-20.852 48.23-34.117 10.736 14.01 33.417 34.326 75.082 35.276l.17.002a7.52 7.52 0 0 0 7.36-9.054l-8.826-42.23zm-7.916-35.617l-7.12 34.08c-.003.007-.373 1.36-.005 3.054.003.007.003.014.005.02l7.12 34.08c-37.563-4.218-53.842-27.31-58.54-35.613 4.715-8.337 20.998-31.405 58.54-35.622zM266.97 141.95c-27.89 11.002-64.223 17.06-102.308 17.06-20.156 0-39.096-3.343-55.904-8.13 21.542-15.345 24.317-36.173 22.13-46.61-.853-4.064-4.848-6.705-8.908-5.852-4.064.853-6.674 4.8-5.822 8.863.182.975 3.99 23.388-26.486 37.284a256.775 256.775 0 0 1-25.728-11.374c-20.896-10.64-36.288-21.934-44.085-28.402 6.198-5.83 21.127-16.782 43.985-27.69 23.41-11.17 59.903-24.483 100.817-24.483 38.084 0 74.417 6.06 102.306 17.06 24.783 9.776 40.994 22.867 44.885 36.14-3.892 13.27-20.102 26.36-44.884 36.135zm-105.974 54.186c-18.642-4.126-26.7-16.107-30.16-24.916 9.748 1.606 19.826 2.6 30.16 2.79v22.126zM219.91 41.86c-17.538-2.8-36.2-4.28-55.25-4.28-14.304 0-28.07 1.503-41.017 3.95 31.58-20.163 78.983-22.807 97.23-23.03l-.962 23.36z"/></g>
	</symbol>
	<symbol id= "hook">
	<path id="svg_1" d="m101.201,229.816l36.515,0c-5.058,26 -28.037,46.125 -55.341,46.125c-31.107,0 -56.374,-25.521 -56.374,-56.629l0,-103.156c3,-2.903 5,-7.293 5,-12.206l0,-88.122c-0.001,-8.742 -6.759,-15.828 -15.501,-15.828s-15.5,7.086 -15.5,15.828l0,88.122c0,4.913 2,9.303 5,12.206l0,103.156c0,42.221 34.731,76.569 76.952,76.569c41.719,0 76.304,-34.296 76.804,-76.496c0.002,-0.331 0.244,-38.913 0.244,-39.301l0,-31.431l-57.799,81.163z"/>
	</symbol>
	</svg>